<svg width="133" height="134" viewBox="0 0 133 134" fill="none" xmlns="http://www.w3.org/2000/svg">
<path d="M129.314 72.7402L128.314 53.5002C128.887 53.3693 129.391 53.0311 129.729 52.5508C130.068 52.0704 130.216 51.4819 130.147 50.8984C130.077 50.315 129.794 49.7778 129.353 49.3904C128.911 49.0031 128.341 48.7928 127.754 48.8002H127.634L123.334 39.8502C123.524 39.7063 123.678 39.5204 123.783 39.3069C123.889 39.0935 123.944 38.8584 123.944 38.6202C123.944 38.2064 123.779 37.8097 123.487 37.5171C123.194 37.2245 122.798 37.0602 122.384 37.0602C122.182 37.06 121.982 37.0973 121.794 37.1702L115.554 27.5702C115.805 27.3696 116.013 27.1201 116.165 26.837C116.317 26.5538 116.41 26.2428 116.439 25.9226C116.467 25.6025 116.431 25.2799 116.331 24.9743C116.232 24.6687 116.071 24.3864 115.86 24.1444C115.648 23.9024 115.39 23.7058 115.1 23.5664C114.811 23.427 114.496 23.3477 114.175 23.3333C113.854 23.3189 113.533 23.3697 113.232 23.4826C112.931 23.5955 112.656 23.7681 112.424 23.9902L103.344 16.2402C103.492 16.003 103.571 15.7296 103.574 15.4502C103.57 15.1232 103.464 14.8057 103.27 14.5419C103.077 14.2782 102.806 14.0814 102.496 13.979C102.185 13.8765 101.85 13.8737 101.538 13.9707C101.226 14.0677 100.952 14.2598 100.754 14.5202L87.0138 7.58018C87.1139 7.37109 87.1652 7.14201 87.1638 6.91019C87.1722 6.51511 87.0304 6.13153 86.7669 5.83698C86.5035 5.54244 86.138 5.35886 85.7445 5.32331C85.3509 5.28776 84.9585 5.40291 84.6466 5.64549C84.3346 5.88806 84.1263 6.24 84.0638 6.6302L68.0138 4.4102C68.0315 3.52193 67.7019 2.66181 67.0951 2.01292C66.4882 1.36403 65.652 0.977593 64.7645 0.935891C63.8771 0.894189 63.0084 1.2005 62.3433 1.78962C61.6783 2.37874 61.2695 3.20417 61.2038 4.09019L48.3938 6.54017C48.3074 6.16513 48.0853 5.8353 47.7703 5.61408C47.4554 5.39286 47.0698 5.29587 46.6876 5.34177C46.3055 5.38768 45.9538 5.57325 45.7002 5.86277C45.4466 6.15229 45.309 6.52534 45.3138 6.91019C45.3133 7.14625 45.3681 7.37914 45.4738 7.59019L31.7138 14.5102C31.5162 14.2513 31.2424 14.0607 30.931 13.9652C30.6196 13.8698 30.2861 13.8742 29.9773 13.9779C29.6685 14.0815 29.3999 14.2792 29.2092 14.5433C29.0185 14.8073 28.9151 15.1244 28.9138 15.4502C28.9115 15.7321 28.9877 16.0091 29.1338 16.2502L20.0438 23.9802C19.6068 23.5654 19.0262 23.3361 18.4238 23.3402C17.7899 23.3402 17.1821 23.592 16.7338 24.0402C16.2856 24.4884 16.0338 25.0963 16.0338 25.7302C16.0349 26.0874 16.1174 26.4397 16.2751 26.7603C16.4328 27.0809 16.6615 27.3613 16.9438 27.5802L10.6938 37.1702C10.5022 37.0972 10.2989 37.0599 10.0938 37.0602C9.88068 37.0479 9.66722 37.0794 9.46676 37.1529C9.2663 37.2264 9.0831 37.3403 8.92843 37.4874C8.77375 37.6346 8.65094 37.812 8.56759 38.0086C8.48423 38.2051 8.44208 38.4167 8.44381 38.6302C8.44342 38.8684 8.4983 39.1035 8.60415 39.3169C8.71 39.5304 8.86391 39.7163 9.05379 39.8602L4.75381 48.8102H4.63381C4.05366 48.8205 3.49711 49.0416 3.06795 49.4321C2.6388 49.8226 2.36636 50.356 2.30148 50.9326C2.23659 51.5092 2.38366 52.0897 2.71529 52.5658C3.04693 53.0419 3.54044 53.3811 4.10378 53.5202L3.04378 72.4202C2.17242 72.5143 1.37075 72.9403 0.805137 73.6098C0.239525 74.2793 -0.046561 75.1408 0.00618691 76.0157C0.0589348 76.8905 0.446507 77.7115 1.08846 78.3082C1.73042 78.9049 2.57746 79.2315 3.45382 79.2202C3.62016 79.2349 3.78748 79.2349 3.95382 79.2202L9.5638 96.9002C9.28717 97.2995 9.14052 97.7744 9.14382 98.2602C9.14382 98.5736 9.20572 98.8839 9.32595 99.1733C9.44618 99.4627 9.62238 99.7255 9.84444 99.9466C10.0665 100.168 10.33 100.343 10.62 100.462C10.9099 100.581 11.2204 100.641 11.5338 100.64H11.5938L18.4438 109.87C18.4385 109.96 18.4385 110.05 18.4438 110.14C18.4438 110.554 18.6082 110.951 18.9007 111.243C19.1933 111.536 19.5901 111.7 20.0038 111.7H20.1038L35.7838 123.23C35.7402 123.417 35.7168 123.608 35.7138 123.8C35.7132 124.286 35.8612 124.76 36.1378 125.159C36.4145 125.558 36.8066 125.863 37.2616 126.033C37.7166 126.203 38.2126 126.229 38.6831 126.109C39.1536 125.989 39.5761 125.727 39.8938 125.36L54.2538 129.93C54.2053 130.143 54.1818 130.362 54.1838 130.58C54.1915 131.439 54.5223 132.264 55.1104 132.891C55.6986 133.517 56.5009 133.899 57.3579 133.961C58.2149 134.022 59.0636 133.759 59.7355 133.224C60.4073 132.688 60.853 131.919 60.9838 131.07H72.4038C72.5429 131.634 72.882 132.127 73.3582 132.459C73.8343 132.79 74.4148 132.937 74.9914 132.873C75.568 132.808 76.1014 132.535 76.4919 132.106C76.8824 131.677 77.1034 131.12 77.1138 130.54C77.1192 130.464 77.1192 130.387 77.1138 130.31L92.5038 125.31C92.8235 125.675 93.247 125.933 93.7176 126.051C94.1882 126.168 94.6835 126.139 95.1371 125.967C95.5907 125.795 95.9809 125.489 96.2556 125.089C96.5302 124.689 96.6761 124.215 96.6738 123.73C96.6691 123.53 96.6389 123.332 96.5838 123.14L111.934 111.93C112.072 111.962 112.212 111.978 112.354 111.98C112.649 111.982 112.941 111.913 113.204 111.779C113.467 111.645 113.694 111.449 113.866 111.21C114.039 110.97 114.151 110.692 114.194 110.4C114.237 110.108 114.21 109.81 114.114 109.53L120.764 100.62C121.077 100.622 121.388 100.561 121.678 100.442C121.968 100.323 122.231 100.148 122.453 99.9266C122.675 99.7055 122.851 99.4427 122.972 99.1533C123.092 98.8639 123.154 98.5536 123.154 98.2402C123.153 97.7442 122.996 97.2612 122.704 96.8602L128.234 79.5202C128.46 79.5692 128.692 79.5927 128.924 79.5902C129.815 79.6159 130.682 79.2912 131.337 78.6858C131.992 78.0804 132.383 77.2425 132.428 76.3516C132.472 75.4608 132.166 74.588 131.574 73.9204C130.983 73.2528 130.153 72.8434 129.264 72.7802L129.314 72.7402ZM122.164 40.1802H122.254L126.194 49.3402C125.977 49.516 125.795 49.7294 125.654 49.9702L118.174 47.9702C119.834 44.7702 121.374 41.7202 122.164 40.1802ZM118.444 98.2802L110.804 99.1802L109.054 90.1202L118.604 97.3202C118.492 97.6001 118.434 97.8987 118.434 98.2002C118.434 98.2002 118.444 98.2502 118.444 98.2802ZM95.7738 101.16C95.7811 101.508 95.8666 101.85 96.0238 102.16L85.2938 109.01C85.096 108.75 84.8218 108.558 84.5095 108.461C84.1973 108.364 83.8625 108.367 83.552 108.469C83.2414 108.571 82.9706 108.768 82.7773 109.032C82.584 109.296 82.478 109.613 82.4738 109.94C82.4683 109.987 82.4683 110.034 82.4738 110.08L67.2638 112.72C67.1812 112.155 66.8978 111.638 66.4654 111.264C66.0329 110.89 65.4804 110.684 64.9088 110.684C64.3372 110.684 63.7847 110.89 63.3523 111.264C62.9198 111.638 62.6364 112.155 62.5538 112.72L49.8838 110.12C49.8892 110.057 49.8892 109.993 49.8838 109.93C49.8838 109.516 49.7195 109.12 49.4269 108.827C49.1343 108.535 48.7376 108.37 48.3238 108.37C48.0805 108.369 47.8403 108.425 47.6231 108.535C47.4058 108.644 47.2176 108.804 47.0738 109L36.3338 102.15C36.4911 101.84 36.5765 101.498 36.5838 101.15C36.5838 100.518 36.3334 99.9117 35.8874 99.4637C35.4413 99.0158 34.836 98.7628 34.2038 98.7602C33.7969 98.7618 33.3973 98.8686 33.0438 99.0702L25.9238 89.4802C26.1637 89.1713 26.2939 88.7913 26.2938 88.4002C26.2938 87.9228 26.1042 87.465 25.7666 87.1274C25.4291 86.7898 24.9712 86.6002 24.4938 86.6002L20.6938 74.0902C21.0087 73.924 21.2668 73.6676 21.4352 73.3539C21.6036 73.0402 21.6746 72.6834 21.6392 72.3291C21.6038 71.9749 21.4635 71.6392 21.2363 71.3651C21.0091 71.0909 20.7053 70.8908 20.3638 70.7902L20.8938 61.1602C21.357 61.0623 21.7804 60.8285 22.11 60.4887C22.4396 60.1489 22.6604 59.7185 22.7441 59.2526C22.8278 58.7867 22.7707 58.3064 22.58 57.8731C22.3894 57.4398 22.0739 57.0732 21.6738 56.8202L24.6738 47.0802C25.024 47.0049 25.338 46.8121 25.5636 46.5338C25.7891 46.2555 25.9127 45.9084 25.9138 45.5502C25.9098 45.3511 25.8691 45.1545 25.7938 44.9702L35.9638 32.9302C36.3234 33.0653 36.7104 33.1106 37.0915 33.0622C37.4725 33.0138 37.8359 32.8731 38.1502 32.6524C38.4646 32.4317 38.7203 32.1376 38.8952 31.7957C39.0701 31.4537 39.1589 31.0742 39.1538 30.6902C39.1642 30.5671 39.1642 30.4433 39.1538 30.3202L58.4438 22.1202C58.6455 22.377 58.9118 22.5756 59.2155 22.6954C59.5193 22.8153 59.8494 22.8522 60.1721 22.8023C60.4948 22.7524 60.7984 22.6176 61.0518 22.4116C61.3051 22.2056 61.4991 21.9359 61.6138 21.6302H70.8438C70.9585 21.9359 71.1525 22.2056 71.4058 22.4116C71.6592 22.6176 71.9628 22.7524 72.2855 22.8023C72.6082 22.8522 72.9384 22.8153 73.2421 22.6954C73.5458 22.5756 73.8122 22.377 74.0138 22.1202L93.9238 30.5702C93.9238 30.9839 94.0881 31.3807 94.3807 31.6733C94.6733 31.9658 95.0701 32.1302 95.4838 32.1302C95.5835 32.14 95.6841 32.14 95.7838 32.1302L105.674 43.9302C105.359 44.2694 105.149 44.6931 105.071 45.1495C104.993 45.6058 105.05 46.075 105.235 46.4995C105.42 46.9241 105.724 47.2856 106.111 47.5397C106.498 47.7938 106.951 47.9295 107.414 47.9302C107.593 47.9273 107.77 47.9038 107.944 47.8602L110.944 57.6802C110.704 57.8501 110.518 58.0847 110.406 58.3565C110.295 58.6283 110.263 58.9262 110.314 59.2154C110.366 59.5047 110.498 59.7734 110.696 59.9902C110.895 60.2071 111.15 60.3631 111.434 60.4402L112.004 70.8202C111.633 70.928 111.307 71.1528 111.075 71.4609C110.842 71.7691 110.716 72.1442 110.714 72.5302C110.72 72.8611 110.817 73.184 110.993 73.4641C111.169 73.7443 111.418 73.9711 111.714 74.1202L107.904 86.6302C107.427 86.6328 106.971 86.8233 106.634 87.1603C106.297 87.4973 106.106 87.9536 106.104 88.4302C106.104 88.8213 106.234 89.2013 106.474 89.5102L99.3638 99.1002C99.0093 98.9011 98.6104 98.7944 98.2038 98.7902C97.8875 98.7835 97.5729 98.8398 97.2785 98.9557C96.984 99.0716 96.7155 99.2448 96.4885 99.4652C96.2615 99.6857 96.0806 99.9491 95.9562 100.24C95.8318 100.531 95.7664 100.844 95.7638 101.16H95.7738ZM97.3638 103.4L96.1838 109.84H85.8838L96.6638 103C96.869 103.172 97.1024 103.308 97.3538 103.4H97.3638ZM83.1838 111.3L79.7738 118.3L67.1638 113.93V113.83L82.8838 111.11C82.9738 111.183 83.0709 111.247 83.1738 111.3H83.1838ZM62.6438 113.83L52.3938 117.83L49.2138 111.29C49.3015 111.229 49.385 111.162 49.4638 111.09L62.6438 113.83ZM46.4538 109.83H36.2038L35.0238 103.39C35.2846 103.294 35.5279 103.155 35.7438 102.98L46.4538 109.83ZM13.7938 97.3102L23.3438 90.1102L21.5938 99.1702L13.9638 98.2702V98.1902C13.959 97.8915 13.8979 97.5963 13.7838 97.3202L13.7938 97.3102ZM7.04378 50.9302L14.6738 48.9302C16.2038 51.9302 17.7538 54.9302 18.8438 57.0402C18.5845 57.261 18.376 57.5353 18.2327 57.8443C18.0895 58.1533 18.0148 58.4896 18.0138 58.8302C18.0135 59.3139 18.1638 59.7857 18.4438 60.1802L14.5838 64.0902L6.58382 52.5902C6.88956 52.1838 7.05452 51.6888 7.05379 51.1802C7.0563 51.0967 7.05295 51.0132 7.04378 50.9302ZM19.7338 56.5402C18.6738 54.5402 17.1738 51.5402 15.7338 48.6602C18.7938 47.8502 21.6438 47.1102 23.3138 46.6602C23.4375 46.776 23.5793 46.8706 23.7338 46.9402L20.8038 56.4402C20.6838 56.4402 20.5738 56.4402 20.4538 56.4402C20.2087 56.4387 19.9651 56.4793 19.7338 56.5602V56.5402ZM19.9138 61.1502L19.3738 70.7802H19.2638L15.1738 64.9302L19.1738 60.8702C19.4013 61.0122 19.6516 61.1137 19.9138 61.1702V61.1502ZM18.4438 71.4402C18.2128 71.7494 18.0867 72.1242 18.0838 72.5102V72.5802L6.80379 74.9302C6.70872 74.5512 6.55345 74.1899 6.34383 73.8602L14.4438 65.6602L18.4438 71.4402ZM6.90383 75.9302L18.4438 73.5502C18.5604 73.7118 18.7022 73.8536 18.8638 73.9702L15.8638 82.9702L6.51382 77.3602C6.75057 76.9193 6.88395 76.4303 6.90383 75.9302ZM19.7538 74.3802L23.5438 86.9302C23.367 87.0502 23.2116 87.1989 23.0838 87.3702L16.7338 83.5602L19.7538 74.3802ZM24.3538 90.1502H24.5238C24.7436 90.1486 24.9609 90.1045 25.1638 90.0202L32.3038 99.6902C32.1605 99.8883 32.0492 100.108 31.9738 100.34L22.5938 99.2302L24.3538 90.1502ZM22.1938 35.7702L34.9638 32.1902C35.0017 32.2447 35.0453 32.295 35.0938 32.3402L25.0938 44.1702C24.9833 44.0999 24.8615 44.0491 24.7338 44.0202L22.1938 35.7702ZM38.1938 28.7702L42.5538 18.4202L57.6538 21.3102L38.7338 29.3102C38.5877 29.1116 38.4124 28.9362 38.2138 28.7902L38.1938 28.7702ZM74.6838 21.3102L89.7938 18.4202L94.4038 29.4202C94.3331 29.4794 94.2693 29.5465 94.2138 29.6202L74.6838 21.3102ZM97.0538 32.1202L110.164 35.7902L107.884 43.1602C107.722 43.1287 107.558 43.112 107.394 43.1102C107.071 43.1104 106.751 43.175 106.454 43.3002L97.0538 32.1202ZM112.184 57.3802C112.081 57.3705 111.977 57.3705 111.874 57.3802L108.874 47.3802C109.099 47.2086 109.292 46.9987 109.444 46.7602L116.704 48.6602C114.984 52.0302 113.254 55.4002 112.204 57.4002L112.184 57.3802ZM112.584 60.2602L117.184 64.9202L113.104 70.8102H112.994L112.444 60.3702C112.5 60.3457 112.554 60.3155 112.604 60.2802L112.584 60.2602ZM107.214 90.0702C107.412 90.1464 107.622 90.187 107.834 90.1902H108.004L109.764 99.2902L100.444 100.4C100.366 100.159 100.247 99.9322 100.094 99.7302L107.214 90.0702ZM108.794 86.8802L112.604 74.4002L115.604 83.5202L109.254 87.3302C109.131 87.1723 108.983 87.037 108.814 86.9302L108.794 86.8802ZM113.544 73.9302C113.708 73.8162 113.85 73.674 113.964 73.5102L125.564 75.9402C125.559 75.9901 125.559 76.0403 125.564 76.0902C125.565 76.5437 125.657 76.9924 125.834 77.4102L116.554 82.9702L113.544 73.9302ZM125.754 74.9302L114.294 72.5202C114.294 72.5202 114.294 72.5202 114.294 72.4502C114.292 72.0625 114.162 71.6864 113.924 71.3802L117.924 65.6202L126.224 74.0202C126.022 74.3193 125.863 74.646 125.754 74.9902V74.9302ZM117.754 64.0402L113.244 59.4702C113.344 59.3043 113.411 59.1211 113.444 58.9302C113.451 58.5657 113.327 58.2108 113.094 57.9302C114.164 55.9302 115.974 52.3802 117.734 48.9302L125.364 50.9302C125.358 51.0101 125.358 51.0903 125.364 51.1702C125.368 51.678 125.533 52.1714 125.834 52.5802L117.754 64.0402ZM117.134 47.6902L109.724 45.7602C109.734 45.6604 109.734 45.5599 109.724 45.4602C109.718 45.0859 109.624 44.7182 109.45 44.3866C109.277 44.0549 109.028 43.7685 108.724 43.5502L111.044 36.0202L120.674 38.7202C120.701 39.0983 120.864 39.4538 121.134 39.7202C120.444 41.3302 118.854 44.4502 117.174 47.7502L117.134 47.6902ZM113.964 28.0602C114.163 28.0589 114.361 28.032 114.554 27.9802L120.884 37.7102L111.444 35.1102L113.624 28.1102C113.75 28.1244 113.877 28.1277 114.004 28.1202L113.964 28.0602ZM112.644 27.6602L110.444 34.7802L97.0738 31.0302L111.784 26.6502C111.972 27.0879 112.285 27.4603 112.684 27.7202L112.644 27.6602ZM101.744 17.0002H101.954C102.146 17.0005 102.336 16.9631 102.514 16.8902L111.794 24.7902C111.683 25.0743 111.622 25.3754 111.614 25.6802L96.9138 30.0602C96.8151 29.7525 96.6184 29.4856 96.3538 29.3002L101.744 17.0002ZM100.834 16.5502L95.3738 29.0402L90.8338 18.2402L100.674 16.3602C100.722 16.4279 100.775 16.4915 100.834 16.5502ZM100.224 15.4102L90.4238 17.2902L86.7838 8.6302L100.224 15.4102ZM84.9638 8.41019C85.1513 8.48648 85.3514 8.52717 85.5538 8.53019H85.6238L89.4138 17.5302L74.2938 20.4302C74.2395 20.2635 74.1621 20.1053 74.0638 19.9602C76.8738 16.9302 82.6638 10.8102 84.9638 8.37019V8.41019ZM67.8038 5.46018L84.1838 7.71018C81.8638 10.1702 76.0338 16.3502 73.2638 19.2702C73.0276 19.1656 72.7722 19.1111 72.5138 19.1102C72.3842 19.0954 72.2534 19.0954 72.1238 19.1102C70.5138 16.0302 68.1238 10.6002 66.5838 7.11018C67.1604 6.69141 67.5878 6.09922 67.8038 5.42017V5.46018ZM64.5438 7.89018C64.9439 7.8886 65.3405 7.81405 65.7138 7.67017C67.2338 11.1702 69.6138 16.5402 71.2538 19.6702C70.9707 19.9381 70.7785 20.2877 70.7038 20.6702H61.7038C61.6552 20.4122 61.5526 20.1675 61.4026 19.9521C61.2527 19.7366 61.0588 19.5553 60.8338 19.4202L64.1338 7.86018C64.2706 7.86581 64.4075 7.86249 64.5438 7.8502V7.89018ZM48.2338 7.64018L61.2338 5.17017C61.3425 5.69569 61.574 6.18801 61.9094 6.60688C62.2449 7.02575 62.6747 7.35928 63.1638 7.58018L59.8638 19.1402C59.6118 19.1409 59.363 19.1955 59.1338 19.3002L48.2138 7.74018L48.2338 7.64018ZM46.7538 8.52018H46.8238C47.0262 8.51716 47.2263 8.47647 47.4138 8.40019C49.7138 10.8402 55.5038 16.9802 58.3138 19.9402C58.2147 20.0835 58.1404 20.2423 58.0938 20.4102L42.9738 17.5102L46.7538 8.52018ZM45.5938 8.67017L41.9538 17.3302L32.1538 15.4502L45.5938 8.67017ZM31.7038 16.4002L41.5538 18.2802L37.2938 28.4002C37.1204 28.3566 36.9426 28.3331 36.7638 28.3302H36.6938L31.5438 16.5802C31.6038 16.512 31.6574 16.4383 31.7038 16.3602V16.4002ZM29.8638 16.9602C30.0418 17.0321 30.2318 17.0695 30.4238 17.0702H30.6438L35.6438 28.6302C35.1168 28.8921 34.7066 29.3415 34.4938 29.8902L20.7138 25.7802C20.7053 25.4754 20.6444 25.1743 20.5338 24.8902L29.8638 16.9602ZM20.5538 26.7502L34.4438 30.8302C34.455 30.9957 34.4818 31.1597 34.5238 31.3202L21.9538 34.8402L19.7538 27.7202C20.1055 27.4606 20.3816 27.1119 20.5538 26.7102V26.7502ZM17.7938 28.0802C17.9827 28.1326 18.1778 28.1595 18.3738 28.1602C18.5003 28.1701 18.6273 28.1701 18.7538 28.1602L20.9238 35.1602L11.4438 37.7602L17.7938 28.0802ZM11.5938 38.8202L21.2238 36.1202L23.7038 44.1702C23.4267 44.2925 23.1912 44.4929 23.026 44.7468C22.8609 45.0007 22.7733 45.2973 22.7738 45.6002C22.7689 45.6701 22.7689 45.7403 22.7738 45.8102L15.1838 47.8102C13.5038 44.5102 11.9238 41.3902 11.1138 39.8102C11.4018 39.5425 11.5741 39.1729 11.5938 38.7802V38.8202ZM10.1138 40.2302H10.2138C11.0038 41.7702 12.5438 44.8202 14.2138 48.0702L6.7438 50.0702C6.59695 49.8339 6.41487 49.6215 6.20382 49.4402L10.1138 40.2302ZM5.11379 53.5702C5.35633 53.5214 5.58935 53.4336 5.80379 53.3102L13.8038 64.8702L5.59383 73.1802C5.1447 72.8176 4.61171 72.5735 4.04378 72.4702L5.11379 53.5702ZM11.5938 95.8502C11.1943 95.8499 10.8015 95.9533 10.4538 96.1502L4.98379 78.9102C5.32638 78.7486 5.64045 78.5324 5.91378 78.2702L15.5338 84.0302L11.5938 95.8502ZM16.4438 84.5302L22.7738 88.3202C22.769 88.35 22.769 88.3804 22.7738 88.4102C22.773 88.673 22.8311 88.9327 22.9438 89.1702L13.2638 96.4802C13.0832 96.3025 12.8735 96.1571 12.6438 96.0502L16.4438 84.5302ZM19.8138 108.53C19.5439 108.572 19.2891 108.682 19.0738 108.85L12.7038 100.29C13.1297 100.064 13.478 99.716 13.7038 99.2902L21.4038 100.2L19.8138 108.53ZM20.8138 108.7L22.4338 100.28L31.8938 101.39C31.9517 101.938 32.1975 102.448 32.5896 102.835C32.9816 103.221 33.4955 103.46 34.0438 103.51L35.2038 109.83H21.5638C21.5279 109.596 21.4389 109.374 21.3037 109.18C21.1685 108.986 20.9907 108.825 20.7838 108.71L20.8138 108.7ZM36.2938 122.23L21.1838 111.14C21.2688 111.053 21.3427 110.956 21.4038 110.85H35.4038L37.3438 121.49C36.921 121.635 36.547 121.895 36.2638 122.24L36.2938 122.23ZM38.2938 121.35L36.3738 110.85H47.0438L47.1738 111L38.9938 121.5C38.7713 121.422 38.5391 121.375 38.3038 121.36L38.2938 121.35ZM39.8338 122.07L48.0438 111.52H48.1838L51.4238 118.19L40.1938 122.58C40.0988 122.399 39.9812 122.231 39.8438 122.08L39.8338 122.07ZM54.5838 128.97L40.4438 124.4C40.5085 124.183 40.5422 123.957 40.5438 123.73C40.5438 123.68 40.5438 123.63 40.5438 123.57L51.9238 119.12L56.0338 127.58C55.4263 127.895 54.9253 128.382 54.5938 128.98L54.5838 128.97ZM57.5838 127.15C57.3591 127.15 57.1348 127.17 56.9138 127.21L52.8038 118.74L63.1338 114.74C63.2532 114.881 63.3911 115.006 63.5438 115.11L58.4438 127.28C58.1695 127.207 57.8875 127.167 57.6038 127.16L57.5838 127.15ZM72.4438 130.02H61.0338C60.9575 129.534 60.7778 129.07 60.507 128.66C60.2361 128.249 59.8805 127.902 59.4638 127.64L64.5538 115.43C64.6936 115.441 64.834 115.441 64.9738 115.43C65.1983 115.429 65.4212 115.392 65.6338 115.32L73.1938 128.64C72.7929 129.001 72.5281 129.488 72.4438 130.02ZM74.7838 128.11C74.5433 128.115 74.3045 128.152 74.0738 128.22L66.4438 114.93L66.5938 114.81L79.2838 119.26L74.9738 128.14L74.7838 128.11ZM76.8338 129.3C76.6329 128.958 76.3514 128.669 76.0138 128.46L80.3338 119.58L91.9338 123.65C91.9338 123.65 91.9338 123.65 91.9338 123.73C91.9337 123.958 91.9708 124.184 92.0438 124.4L76.8338 129.3ZM92.1838 122.66L80.7738 118.66L84.2338 111.54H84.3738L92.5938 122.09C92.4117 122.255 92.2564 122.447 92.1338 122.66H92.1838ZM94.1238 121.36C93.8881 121.379 93.6561 121.43 93.4338 121.51L85.2538 111.01L85.3838 110.86H96.0438L94.1238 121.36ZM96.1238 122.24C95.8613 121.91 95.5164 121.655 95.1238 121.5L97.0638 110.86H110.714C110.796 111.03 110.9 111.188 111.024 111.33L96.1238 122.24ZM110.524 109.84H97.2238L98.3738 103.52C98.9221 103.47 99.436 103.231 99.828 102.845C100.22 102.458 100.466 101.948 100.524 101.4L109.984 100.29L111.554 108.41C111.275 108.544 111.035 108.744 110.853 108.994C110.671 109.243 110.555 109.534 110.514 109.84H110.524ZM113.524 108.63C113.236 108.403 112.889 108.264 112.524 108.23L110.964 100.18L118.664 99.2702C118.891 99.6949 119.239 100.043 119.664 100.27L113.524 108.63ZM119.164 96.4802L109.444 89.1702C109.56 88.9334 109.621 88.6738 109.624 88.4102C109.624 88.4102 109.624 88.3502 109.624 88.3202L115.954 84.5302L119.764 96.0502C119.538 96.1589 119.332 96.3042 119.154 96.4802H119.164ZM121.954 96.1102C121.609 95.9145 121.22 95.8112 120.824 95.8102L116.914 83.9902L126.394 78.3102C126.673 78.6409 127.012 78.9157 127.394 79.1202L121.954 96.1102ZM126.954 73.3702L118.524 64.8302L126.524 53.2702C126.738 53.3936 126.971 53.4814 127.214 53.5302L128.274 72.7702C127.796 72.8741 127.346 73.0787 126.954 73.3702Z" fill="url(#paint0_linear_1_2813)"/>
<path d="M45.6438 65.1602L66.7838 77.3401L87.9138 65.1602L66.7838 32.4102L45.6438 65.1602ZM68.8938 39.5801L84.8938 64.4301L68.8938 73.6902V39.5801Z" fill="white"/>
<path d="M45.6438 69.8003L66.7838 98.6003L87.9138 69.8003L66.7838 82.5703L45.6438 69.8003ZM68.8938 83.8003L79.9538 77.1203L68.8938 92.1903V83.8003Z" fill="white"/>
<defs>
<linearGradient id="paint0_linear_1_2813" x1="66.2338" y1="2.10017" x2="66.2338" y2="128.95" gradientUnits="userSpaceOnUse">
<stop stop-color="#8DF9C5"/>
<stop offset="0.93" stop-color="#cc0000"/>
<stop offset="1" stop-color="#cc0000"/>
</linearGradient>
</defs>
</svg>
