<svg width="201" height="4" viewBox="0 0 201 4" fill="none" xmlns="http://www.w3.org/2000/svg">
<path opacity="0.5" d="M1.45006 3.1C1.25006 3.1 1.06673 3.05333 0.900061 2.96C0.740061 2.86 0.613394 2.73 0.520061 2.57C0.426728 2.41 0.380061 2.23 0.380061 2.03C0.380061 1.83 0.426728 1.65 0.520061 1.49C0.613394 1.33 0.740061 1.20333 0.900061 1.11C1.06673 1.01 1.25006 0.96 1.45006 0.96C1.65006 0.96 1.83006 1.01 1.99006 1.11C2.15006 1.20333 2.27673 1.33 2.37006 1.49C2.47006 1.65 2.52006 1.83 2.52006 2.03C2.52006 2.23 2.47006 2.41 2.37006 2.57C2.27673 2.73 2.15006 2.86 1.99006 2.96C1.83006 3.05333 1.65006 3.1 1.45006 3.1ZM11.3505 3.1C11.1505 3.1 10.9671 3.05333 10.8005 2.96C10.6405 2.86 10.5138 2.73 10.4205 2.57C10.3271 2.41 10.2805 2.23 10.2805 2.03C10.2805 1.83 10.3271 1.65 10.4205 1.49C10.5138 1.33 10.6405 1.20333 10.8005 1.11C10.9671 1.01 11.1505 0.96 11.3505 0.96C11.5505 0.96 11.7305 1.01 11.8905 1.11C12.0505 1.20333 12.1771 1.33 12.2705 1.49C12.3705 1.65 12.4205 1.83 12.4205 2.03C12.4205 2.23 12.3705 2.41 12.2705 2.57C12.1771 2.73 12.0505 2.86 11.8905 2.96C11.7305 3.05333 11.5505 3.1 11.3505 3.1ZM21.2508 3.1C21.0508 3.1 20.8675 3.05333 20.7008 2.96C20.5408 2.86 20.4142 2.73 20.3208 2.57C20.2275 2.41 20.1808 2.23 20.1808 2.03C20.1808 1.83 20.2275 1.65 20.3208 1.49C20.4142 1.33 20.5408 1.20333 20.7008 1.11C20.8675 1.01 21.0508 0.96 21.2508 0.96C21.4508 0.96 21.6308 1.01 21.7908 1.11C21.9508 1.20333 22.0775 1.33 22.1708 1.49C22.2708 1.65 22.3208 1.83 22.3208 2.03C22.3208 2.23 22.2708 2.41 22.1708 2.57C22.0775 2.73 21.9508 2.86 21.7908 2.96C21.6308 3.05333 21.4508 3.1 21.2508 3.1ZM31.1512 3.1C30.9512 3.1 30.7679 3.05333 30.6012 2.96C30.4412 2.86 30.3146 2.73 30.2212 2.57C30.1279 2.41 30.0812 2.23 30.0812 2.03C30.0812 1.83 30.1279 1.65 30.2212 1.49C30.3146 1.33 30.4412 1.20333 30.6012 1.11C30.7679 1.01 30.9512 0.96 31.1512 0.96C31.3512 0.96 31.5312 1.01 31.6912 1.11C31.8512 1.20333 31.9779 1.33 32.0712 1.49C32.1712 1.65 32.2212 1.83 32.2212 2.03C32.2212 2.23 32.1712 2.41 32.0712 2.57C31.9779 2.73 31.8512 2.86 31.6912 2.96C31.5312 3.05333 31.3512 3.1 31.1512 3.1ZM41.0516 3.1C40.8516 3.1 40.6683 3.05333 40.5016 2.96C40.3416 2.86 40.215 2.73 40.1216 2.57C40.0283 2.41 39.9816 2.23 39.9816 2.03C39.9816 1.83 40.0283 1.65 40.1216 1.49C40.215 1.33 40.3416 1.20333 40.5016 1.11C40.6683 1.01 40.8516 0.96 41.0516 0.96C41.2516 0.96 41.4316 1.01 41.5916 1.11C41.7516 1.20333 41.8783 1.33 41.9716 1.49C42.0716 1.65 42.1216 1.83 42.1216 2.03C42.1216 2.23 42.0716 2.41 41.9716 2.57C41.8783 2.73 41.7516 2.86 41.5916 2.96C41.4316 3.05333 41.2516 3.1 41.0516 3.1ZM50.952 3.1C50.752 3.1 50.5687 3.05333 50.402 2.96C50.242 2.86 50.1153 2.73 50.022 2.57C49.9287 2.41 49.882 2.23 49.882 2.03C49.882 1.83 49.9287 1.65 50.022 1.49C50.1153 1.33 50.242 1.20333 50.402 1.11C50.5687 1.01 50.752 0.96 50.952 0.96C51.152 0.96 51.332 1.01 51.492 1.11C51.652 1.20333 51.7787 1.33 51.872 1.49C51.972 1.65 52.022 1.83 52.022 2.03C52.022 2.23 51.972 2.41 51.872 2.57C51.7787 2.73 51.652 2.86 51.492 2.96C51.332 3.05333 51.152 3.1 50.952 3.1ZM60.8524 3.1C60.6524 3.1 60.4691 3.05333 60.3024 2.96C60.1424 2.86 60.0157 2.73 59.9224 2.57C59.8291 2.41 59.7824 2.23 59.7824 2.03C59.7824 1.83 59.8291 1.65 59.9224 1.49C60.0157 1.33 60.1424 1.20333 60.3024 1.11C60.4691 1.01 60.6524 0.96 60.8524 0.96C61.0524 0.96 61.2324 1.01 61.3924 1.11C61.5524 1.20333 61.6791 1.33 61.7724 1.49C61.8724 1.65 61.9224 1.83 61.9224 2.03C61.9224 2.23 61.8724 2.41 61.7724 2.57C61.6791 2.73 61.5524 2.86 61.3924 2.96C61.2324 3.05333 61.0524 3.1 60.8524 3.1ZM70.7528 3.1C70.5528 3.1 70.3695 3.05333 70.2028 2.96C70.0428 2.86 69.9161 2.73 69.8228 2.57C69.7295 2.41 69.6828 2.23 69.6828 2.03C69.6828 1.83 69.7295 1.65 69.8228 1.49C69.9161 1.33 70.0428 1.20333 70.2028 1.11C70.3695 1.01 70.5528 0.96 70.7528 0.96C70.9528 0.96 71.1328 1.01 71.2928 1.11C71.4528 1.20333 71.5795 1.33 71.6728 1.49C71.7728 1.65 71.8228 1.83 71.8228 2.03C71.8228 2.23 71.7728 2.41 71.6728 2.57C71.5795 2.73 71.4528 2.86 71.2928 2.96C71.1328 3.05333 70.9528 3.1 70.7528 3.1ZM80.6532 3.1C80.4532 3.1 80.2699 3.05333 80.1032 2.96C79.9432 2.86 79.8165 2.73 79.7232 2.57C79.6299 2.41 79.5832 2.23 79.5832 2.03C79.5832 1.83 79.6299 1.65 79.7232 1.49C79.8165 1.33 79.9432 1.20333 80.1032 1.11C80.2699 1.01 80.4532 0.96 80.6532 0.96C80.8532 0.96 81.0332 1.01 81.1932 1.11C81.3532 1.20333 81.4799 1.33 81.5732 1.49C81.6732 1.65 81.7232 1.83 81.7232 2.03C81.7232 2.23 81.6732 2.41 81.5732 2.57C81.4799 2.73 81.3532 2.86 81.1932 2.96C81.0332 3.05333 80.8532 3.1 80.6532 3.1ZM90.5536 3.1C90.3536 3.1 90.1702 3.05333 90.0036 2.96C89.8436 2.86 89.7169 2.73 89.6236 2.57C89.5302 2.41 89.4836 2.23 89.4836 2.03C89.4836 1.83 89.5302 1.65 89.6236 1.49C89.7169 1.33 89.8436 1.20333 90.0036 1.11C90.1702 1.01 90.3536 0.96 90.5536 0.96C90.7536 0.96 90.9336 1.01 91.0936 1.11C91.2536 1.20333 91.3802 1.33 91.4736 1.49C91.5736 1.65 91.6236 1.83 91.6236 2.03C91.6236 2.23 91.5736 2.41 91.4736 2.57C91.3802 2.73 91.2536 2.86 91.0936 2.96C90.9336 3.05333 90.7536 3.1 90.5536 3.1ZM100.454 3.1C100.254 3.1 100.071 3.05333 99.904 2.96C99.744 2.86 99.6173 2.73 99.524 2.57C99.4306 2.41 99.384 2.23 99.384 2.03C99.384 1.83 99.4306 1.65 99.524 1.49C99.6173 1.33 99.744 1.20333 99.904 1.11C100.071 1.01 100.254 0.96 100.454 0.96C100.654 0.96 100.834 1.01 100.994 1.11C101.154 1.20333 101.281 1.33 101.374 1.49C101.474 1.65 101.524 1.83 101.524 2.03C101.524 2.23 101.474 2.41 101.374 2.57C101.281 2.73 101.154 2.86 100.994 2.96C100.834 3.05333 100.654 3.1 100.454 3.1ZM110.354 3.1C110.154 3.1 109.971 3.05333 109.804 2.96C109.644 2.86 109.518 2.73 109.424 2.57C109.331 2.41 109.284 2.23 109.284 2.03C109.284 1.83 109.331 1.65 109.424 1.49C109.518 1.33 109.644 1.20333 109.804 1.11C109.971 1.01 110.154 0.96 110.354 0.96C110.554 0.96 110.734 1.01 110.894 1.11C111.054 1.20333 111.181 1.33 111.274 1.49C111.374 1.65 111.424 1.83 111.424 2.03C111.424 2.23 111.374 2.41 111.274 2.57C111.181 2.73 111.054 2.86 110.894 2.96C110.734 3.05333 110.554 3.1 110.354 3.1ZM120.255 3.1C120.055 3.1 119.871 3.05333 119.705 2.96C119.545 2.86 119.418 2.73 119.325 2.57C119.231 2.41 119.185 2.23 119.185 2.03C119.185 1.83 119.231 1.65 119.325 1.49C119.418 1.33 119.545 1.20333 119.705 1.11C119.871 1.01 120.055 0.96 120.255 0.96C120.455 0.96 120.635 1.01 120.795 1.11C120.955 1.20333 121.081 1.33 121.175 1.49C121.275 1.65 121.325 1.83 121.325 2.03C121.325 2.23 121.275 2.41 121.175 2.57C121.081 2.73 120.955 2.86 120.795 2.96C120.635 3.05333 120.455 3.1 120.255 3.1ZM130.155 3.1C129.955 3.1 129.772 3.05333 129.605 2.96C129.445 2.86 129.318 2.73 129.225 2.57C129.132 2.41 129.085 2.23 129.085 2.03C129.085 1.83 129.132 1.65 129.225 1.49C129.318 1.33 129.445 1.20333 129.605 1.11C129.772 1.01 129.955 0.96 130.155 0.96C130.355 0.96 130.535 1.01 130.695 1.11C130.855 1.20333 130.982 1.33 131.075 1.49C131.175 1.65 131.225 1.83 131.225 2.03C131.225 2.23 131.175 2.41 131.075 2.57C130.982 2.73 130.855 2.86 130.695 2.96C130.535 3.05333 130.355 3.1 130.155 3.1ZM140.056 3.1C139.856 3.1 139.672 3.05333 139.506 2.96C139.346 2.86 139.219 2.73 139.126 2.57C139.032 2.41 138.986 2.23 138.986 2.03C138.986 1.83 139.032 1.65 139.126 1.49C139.219 1.33 139.346 1.20333 139.506 1.11C139.672 1.01 139.856 0.96 140.056 0.96C140.256 0.96 140.436 1.01 140.596 1.11C140.756 1.20333 140.882 1.33 140.976 1.49C141.076 1.65 141.126 1.83 141.126 2.03C141.126 2.23 141.076 2.41 140.976 2.57C140.882 2.73 140.756 2.86 140.596 2.96C140.436 3.05333 140.256 3.1 140.056 3.1ZM149.956 3.1C149.756 3.1 149.573 3.05333 149.406 2.96C149.246 2.86 149.119 2.73 149.026 2.57C148.933 2.41 148.886 2.23 148.886 2.03C148.886 1.83 148.933 1.65 149.026 1.49C149.119 1.33 149.246 1.20333 149.406 1.11C149.573 1.01 149.756 0.96 149.956 0.96C150.156 0.96 150.336 1.01 150.496 1.11C150.656 1.20333 150.783 1.33 150.876 1.49C150.976 1.65 151.026 1.83 151.026 2.03C151.026 2.23 150.976 2.41 150.876 2.57C150.783 2.73 150.656 2.86 150.496 2.96C150.336 3.05333 150.156 3.1 149.956 3.1ZM159.856 3.1C159.656 3.1 159.473 3.05333 159.306 2.96C159.146 2.86 159.02 2.73 158.926 2.57C158.833 2.41 158.786 2.23 158.786 2.03C158.786 1.83 158.833 1.65 158.926 1.49C159.02 1.33 159.146 1.20333 159.306 1.11C159.473 1.01 159.656 0.96 159.856 0.96C160.056 0.96 160.236 1.01 160.396 1.11C160.556 1.20333 160.683 1.33 160.776 1.49C160.876 1.65 160.926 1.83 160.926 2.03C160.926 2.23 160.876 2.41 160.776 2.57C160.683 2.73 160.556 2.86 160.396 2.96C160.236 3.05333 160.056 3.1 159.856 3.1ZM169.757 3.1C169.557 3.1 169.373 3.05333 169.207 2.96C169.047 2.86 168.92 2.73 168.827 2.57C168.733 2.41 168.687 2.23 168.687 2.03C168.687 1.83 168.733 1.65 168.827 1.49C168.92 1.33 169.047 1.20333 169.207 1.11C169.373 1.01 169.557 0.96 169.757 0.96C169.957 0.96 170.137 1.01 170.297 1.11C170.457 1.20333 170.583 1.33 170.677 1.49C170.777 1.65 170.827 1.83 170.827 2.03C170.827 2.23 170.777 2.41 170.677 2.57C170.583 2.73 170.457 2.86 170.297 2.96C170.137 3.05333 169.957 3.1 169.757 3.1ZM179.657 3.1C179.457 3.1 179.274 3.05333 179.107 2.96C178.947 2.86 178.82 2.73 178.727 2.57C178.634 2.41 178.587 2.23 178.587 2.03C178.587 1.83 178.634 1.65 178.727 1.49C178.82 1.33 178.947 1.20333 179.107 1.11C179.274 1.01 179.457 0.96 179.657 0.96C179.857 0.96 180.037 1.01 180.197 1.11C180.357 1.20333 180.484 1.33 180.577 1.49C180.677 1.65 180.727 1.83 180.727 2.03C180.727 2.23 180.677 2.41 180.577 2.57C180.484 2.73 180.357 2.86 180.197 2.96C180.037 3.05333 179.857 3.1 179.657 3.1ZM189.557 3.1C189.357 3.1 189.174 3.05333 189.007 2.96C188.847 2.86 188.721 2.73 188.627 2.57C188.534 2.41 188.487 2.23 188.487 2.03C188.487 1.83 188.534 1.65 188.627 1.49C188.721 1.33 188.847 1.20333 189.007 1.11C189.174 1.01 189.357 0.96 189.557 0.96C189.757 0.96 189.937 1.01 190.097 1.11C190.257 1.20333 190.384 1.33 190.477 1.49C190.577 1.65 190.627 1.83 190.627 2.03C190.627 2.23 190.577 2.41 190.477 2.57C190.384 2.73 190.257 2.86 190.097 2.96C189.937 3.05333 189.757 3.1 189.557 3.1ZM199.458 3.1C199.258 3.1 199.075 3.05333 198.908 2.96C198.748 2.86 198.621 2.73 198.528 2.57C198.435 2.41 198.388 2.23 198.388 2.03C198.388 1.83 198.435 1.65 198.528 1.49C198.621 1.33 198.748 1.20333 198.908 1.11C199.075 1.01 199.258 0.96 199.458 0.96C199.658 0.96 199.838 1.01 199.998 1.11C200.158 1.20333 200.285 1.33 200.378 1.49C200.478 1.65 200.528 1.83 200.528 2.03C200.528 2.23 200.478 2.41 200.378 2.57C200.285 2.73 200.158 2.86 199.998 2.96C199.838 3.05333 199.658 3.1 199.458 3.1Z" fill="white"/>
</svg>
