<svg width="247" height="36" viewBox="0 0 247 36" fill="none" xmlns="http://www.w3.org/2000/svg">
<g opacity="0.6">
<mask id="path-1-outside-1_473_8639" maskUnits="userSpaceOnUse" x="-2" y="-3" width="251" height="42" fill="black">
<rect fill="white" x="-2" y="-3" width="251" height="42"/>
<path d="M0.62 23.93H10.115C10.265 24.86 10.7 25.67 11.42 26.36C12.14 27.05 13.1 27.59 14.3 27.98C15.53 28.34 16.97 28.52 18.62 28.52C20.9 28.52 22.7 28.235 24.02 27.665C25.34 27.065 26 26.195 26 25.055C26 24.185 25.625 23.51 24.875 23.03C24.125 22.55 22.685 22.205 20.555 21.995L14.255 21.41C9.605 20.99 6.23 19.94 4.13 18.26C2.03 16.55 0.98 14.255 0.98 11.375C0.98 9.035 1.655 7.055 3.005 5.435C4.385 3.815 6.305 2.6 8.765 1.79C11.255 0.949998 14.15 0.529999 17.45 0.529999C20.69 0.529999 23.57 0.994999 26.09 1.925C28.61 2.825 30.605 4.115 32.075 5.795C33.575 7.475 34.385 9.425 34.505 11.645H25.055C24.935 10.835 24.545 10.145 23.885 9.575C23.255 8.975 22.385 8.525 21.275 8.225C20.165 7.895 18.83 7.73 17.27 7.73C15.17 7.73 13.505 8.015 12.275 8.585C11.045 9.125 10.43 9.935 10.43 11.015C10.43 11.795 10.79 12.425 11.51 12.905C12.26 13.385 13.595 13.715 15.515 13.895L22.22 14.57C25.43 14.87 27.995 15.395 29.915 16.145C31.835 16.865 33.23 17.87 34.1 19.16C34.97 20.45 35.405 22.055 35.405 23.975C35.405 26.345 34.7 28.415 33.29 30.185C31.88 31.925 29.9 33.29 27.35 34.28C24.8 35.24 21.83 35.72 18.44 35.72C14.96 35.72 11.885 35.24 9.215 34.28C6.575 33.29 4.505 31.91 3.005 30.14C1.505 28.34 0.71 26.27 0.62 23.93ZM57.538 35.72C54.418 35.72 51.628 35.15 49.168 34.01C46.738 32.87 44.818 31.28 43.408 29.24C41.998 27.17 41.293 24.77 41.293 22.04C41.293 19.37 41.968 17.03 43.318 15.02C44.668 12.98 46.513 11.39 48.853 10.25C51.223 9.11 53.893 8.54 56.863 8.54C59.953 8.54 62.578 9.215 64.738 10.565C66.928 11.885 68.608 13.76 69.778 16.19C70.978 18.62 71.578 21.485 71.578 24.785H48.718V19.25H66.403L63.388 21.185C63.268 19.865 62.938 18.755 62.398 17.855C61.858 16.925 61.138 16.22 60.238 15.74C59.368 15.26 58.318 15.02 57.088 15.02C55.738 15.02 54.583 15.29 53.623 15.83C52.663 16.37 51.913 17.12 51.373 18.08C50.833 19.01 50.563 20.105 50.563 21.365C50.563 22.985 50.923 24.365 51.643 25.505C52.393 26.615 53.473 27.47 54.883 28.07C56.323 28.67 58.078 28.97 60.148 28.97C62.038 28.97 63.913 28.73 65.773 28.25C67.663 27.74 69.373 27.035 70.903 26.135V31.985C69.133 33.185 67.108 34.115 64.828 34.775C62.578 35.405 60.148 35.72 57.538 35.72ZM78.6598 0.349998H87.8848V35H78.6598V0.349998ZM96.0921 0.349998H105.317V35H96.0921V0.349998ZM159.741 28.475L156.861 29.06V1.25H165.906V35H154.161L134.676 7.235L137.511 6.65V35H128.466V1.25H140.526L159.741 28.475ZM179.887 15.065H204.367V22.94H179.887V15.065ZM205.222 1.25V9.125H180.202L184.657 4.67V35H175.342V1.25H205.222ZM223.784 5.345H233.144V35H223.784V5.345ZM210.914 1.25H246.014V9.53H210.914V1.25Z"/>
</mask>
<path d="M0.62 23.93V21.43H-1.978L-1.87815 24.0261L0.62 23.93ZM10.115 23.93L12.5831 23.5319L12.2441 21.43H10.115V23.93ZM11.42 26.36L13.1498 24.555L13.1498 24.555L11.42 26.36ZM14.3 27.98L13.5273 30.3576L13.5624 30.369L13.5978 30.3793L14.3 27.98ZM24.02 27.665L25.0111 29.9602L25.0329 29.9507L25.0545 29.9409L24.02 27.665ZM24.875 23.03L26.2226 20.9243L26.2226 20.9243L24.875 23.03ZM20.555 21.995L20.8003 19.5071L20.7932 19.5064L20.7862 19.5057L20.555 21.995ZM14.255 21.41L14.4862 18.9207L14.4799 18.9201L14.255 21.41ZM4.13 18.26L2.55143 20.1986L2.55982 20.2054L2.56826 20.2122L4.13 18.26ZM3.005 5.435L1.10189 3.81383L1.09311 3.82414L1.08445 3.83454L3.005 5.435ZM8.765 1.79L9.54688 4.16459L9.55551 4.16174L9.56413 4.15884L8.765 1.79ZM26.09 1.925L25.2244 4.27038L25.2368 4.27493L25.2492 4.27935L26.09 1.925ZM32.075 5.795L30.1936 7.44126L30.2018 7.45069L30.2102 7.46004L32.075 5.795ZM34.505 11.645V14.145H37.1438L37.0014 11.5101L34.505 11.645ZM25.055 11.645L22.582 12.0114L22.8981 14.145H25.055V11.645ZM23.885 9.575L22.1609 11.3853L22.2049 11.4273L22.251 11.4671L23.885 9.575ZM21.275 8.225L20.5626 10.6213L20.5925 10.6302L20.6227 10.6384L21.275 8.225ZM12.275 8.585L13.28 10.8741L13.3032 10.8639L13.3262 10.8533L12.275 8.585ZM11.51 12.905L10.1233 14.9851L10.1427 14.9981L10.1624 15.0107L11.51 12.905ZM15.515 13.895L15.7654 11.4076L15.7569 11.4067L15.7484 11.4059L15.515 13.895ZM22.22 14.57L21.9696 17.0574L21.9785 17.0583L21.9874 17.0592L22.22 14.57ZM29.915 16.145L29.0054 18.4736L29.0212 18.4798L29.0372 18.4858L29.915 16.145ZM34.1 19.16L36.1727 17.7621L36.1727 17.7621L34.1 19.16ZM33.29 30.185L35.2323 31.759L35.2389 31.7509L35.2454 31.7427L33.29 30.185ZM27.35 34.28L28.2308 36.6197L28.2428 36.6152L28.2548 36.6105L27.35 34.28ZM9.215 34.28L8.33719 36.6208L8.35313 36.6268L8.36914 36.6326L9.215 34.28ZM3.005 30.14L1.08445 31.7405L1.09107 31.7484L1.09776 31.7563L3.005 30.14ZM0.62 26.43H10.115V21.43H0.62V26.43ZM7.6469 24.3281C7.88874 25.8275 8.60225 27.1223 9.69024 28.165L13.1498 24.555C12.7977 24.2177 12.6413 23.8925 12.5831 23.5319L7.6469 24.3281ZM9.69024 28.165C10.7443 29.1751 12.0614 29.8812 13.5273 30.3576L15.0727 25.6024C14.1386 25.2988 13.5357 24.9249 13.1498 24.555L9.69024 28.165ZM13.5978 30.3793C15.1104 30.8221 16.7968 31.02 18.62 31.02V26.02C17.1432 26.02 15.9496 25.8579 15.0022 25.5807L13.5978 30.3793ZM18.62 31.02C21.0637 31.02 23.2485 30.7213 25.0111 29.9602L23.0289 25.3698C22.1515 25.7487 20.7363 26.02 18.62 26.02V31.02ZM25.0545 29.9409C25.9729 29.5235 26.8473 28.9295 27.4967 28.0735C28.1717 27.1837 28.5 26.1449 28.5 25.055H23.5C23.5 25.0956 23.4947 25.0988 23.501 25.0794C23.5077 25.059 23.5163 25.0475 23.5133 25.0515C23.5027 25.0655 23.3871 25.2065 22.9855 25.3891L25.0545 29.9409ZM28.5 25.055C28.5 23.3085 27.6702 21.8507 26.2226 20.9243L23.5274 25.1357C23.5703 25.1632 23.5822 25.1769 23.5763 25.1709C23.5694 25.1638 23.5517 25.1434 23.5334 25.1104C23.5149 25.0771 23.5047 25.0473 23.5002 25.0287C23.4961 25.0116 23.5 25.0176 23.5 25.055H28.5ZM26.2226 20.9243C25.508 20.4669 24.6514 20.1804 23.815 19.9801C22.9471 19.7721 21.9336 19.6188 20.8003 19.5071L20.3097 24.4829C21.3064 24.5812 22.0779 24.7054 22.65 24.8424C22.9338 24.9104 23.1473 24.9766 23.3018 25.0348C23.3779 25.0635 23.4339 25.088 23.4727 25.1068C23.5119 25.1258 23.5283 25.1363 23.5274 25.1357L26.2226 20.9243ZM20.7862 19.5057L14.4861 18.9207L14.0239 23.8993L20.3239 24.4843L20.7862 19.5057ZM14.4799 18.9201C10.0013 18.5156 7.21864 17.5294 5.69174 16.3078L2.56826 20.2122C5.24136 22.3506 9.20874 23.4644 14.0301 23.8999L14.4799 18.9201ZM5.70857 16.3214C4.23279 15.1197 3.48 13.5579 3.48 11.375H-1.52C-1.52 14.9521 -0.172785 17.9803 2.55143 20.1986L5.70857 16.3214ZM3.48 11.375C3.48 9.55141 3.99155 8.15626 4.92555 7.03546L1.08445 3.83454C-0.68155 5.95373 -1.52 8.51859 -1.52 11.375H3.48ZM4.90811 7.05617C5.93196 5.85426 7.42797 4.86228 9.54688 4.16459L7.98312 -0.58459C5.18203 0.337721 2.83804 1.77574 1.10189 3.81383L4.90811 7.05617ZM9.56413 4.15884C11.7405 3.42465 14.3553 3.03 17.45 3.03V-1.97C13.9447 -1.97 10.7695 -1.52465 7.96587 -0.57884L9.56413 4.15884ZM17.45 3.03C20.4538 3.03 23.0321 3.46131 25.2244 4.27038L26.9556 -0.420381C24.1079 -1.47131 20.9262 -1.97 17.45 -1.97V3.03ZM25.2492 4.27935C27.4473 5.06439 29.0553 6.14034 30.1936 7.44126L33.9564 4.14874C32.1548 2.08966 29.7728 0.585612 26.9308 -0.429356L25.2492 4.27935ZM30.2102 7.46004C31.3374 8.72251 31.9197 10.1349 32.0086 11.7799L37.0014 11.5101C36.8503 8.71513 35.8126 6.22748 33.9398 4.12996L30.2102 7.46004ZM34.505 9.145H25.055V14.145H34.505V9.145ZM27.528 11.2786C27.3142 9.83548 26.6005 8.61694 25.5191 7.68294L22.251 11.4671C22.4895 11.6731 22.5558 11.8345 22.582 12.0114L27.528 11.2786ZM25.6091 7.76466C24.5962 6.79995 23.3145 6.18651 21.9273 5.81159L20.6227 10.6384C21.4555 10.8635 21.9138 11.15 22.1609 11.3853L25.6091 7.76466ZM21.9874 5.82866C20.5819 5.41079 18.9934 5.23 17.27 5.23V10.23C18.6666 10.23 19.7481 10.3792 20.5626 10.6213L21.9874 5.82866ZM17.27 5.23C14.9863 5.23 12.9143 5.53333 11.2238 6.31672L13.3262 10.8533C14.0957 10.4967 15.3537 10.23 17.27 10.23V5.23ZM11.27 6.29589C10.3864 6.68384 9.53435 7.25042 8.90014 8.08573C8.2413 8.95346 7.93 9.96511 7.93 11.015H12.93C12.93 10.985 12.9338 10.9949 12.9226 11.0292C12.9109 11.0651 12.8937 11.0943 12.8824 11.1093C12.8632 11.1346 12.9336 11.0262 13.28 10.8741L11.27 6.29589ZM7.93 11.015C7.93 12.7331 8.7973 14.1012 10.1233 14.9851L12.8968 10.8249C12.798 10.759 12.8244 10.7512 12.8706 10.8322C12.8924 10.8702 12.9094 10.9126 12.9198 10.9534C12.93 10.9932 12.93 11.0163 12.93 11.015H7.93ZM10.1624 15.0107C11.4577 15.8397 13.3245 16.2006 15.2816 16.3841L15.7484 11.4059C13.8655 11.2294 13.0623 10.9303 12.8576 10.7993L10.1624 15.0107ZM15.2646 16.3824L21.9696 17.0574L22.4704 12.0826L15.7654 11.4076L15.2646 16.3824ZM21.9874 17.0592C25.0803 17.3482 27.3887 17.8421 29.0054 18.4736L30.8246 13.8164C28.6013 12.9479 25.7797 12.3918 22.4526 12.0808L21.9874 17.0592ZM29.0372 18.4858C30.6239 19.0808 31.5277 19.8171 32.0273 20.5579L36.1727 17.7621C34.9323 15.9229 33.0461 14.6492 30.7928 13.8042L29.0372 18.4858ZM32.0273 20.5579C32.5597 21.3472 32.905 22.4357 32.905 23.975H37.905C37.905 21.6743 37.3803 19.5528 36.1727 17.7621L32.0273 20.5579ZM32.905 23.975C32.905 25.8079 32.3744 27.322 31.3346 28.6273L35.2454 31.7427C37.0256 29.508 37.905 26.8821 37.905 23.975H32.905ZM31.3477 28.611C30.2664 29.9454 28.6788 31.0823 26.4452 31.9495L28.2548 36.6105C31.1212 35.4977 33.4936 33.9046 35.2323 31.759L31.3477 28.611ZM26.4692 31.9403C24.2601 32.772 21.5999 33.22 18.44 33.22V38.22C22.0601 38.22 25.3399 37.708 28.2308 36.6197L26.4692 31.9403ZM18.44 33.22C15.1853 33.22 12.4059 32.7706 10.0609 31.9274L8.36914 36.6326C11.3641 37.7094 14.7347 38.22 18.44 38.22V33.22ZM10.0928 31.9392C7.76668 31.0669 6.08297 29.9052 4.91224 28.5237L1.09776 31.7563C2.92703 33.9148 5.38332 35.5131 8.33719 36.6208L10.0928 31.9392ZM4.92555 28.5395C3.77863 27.1632 3.18693 25.6221 3.11815 23.8339L-1.87815 24.0261C-1.76693 26.9179 -0.768634 29.5168 1.08445 31.7405L4.92555 28.5395ZM49.168 34.01L48.1062 36.2733L48.1168 36.2783L49.168 34.01ZM43.408 29.24L41.3418 30.6474L41.3466 30.6544L41.3514 30.6615L43.408 29.24ZM43.318 15.02L45.3933 16.4139L45.3981 16.4068L45.4028 16.3997L43.318 15.02ZM48.853 10.25L47.7693 7.99705L47.758 8.00252L48.853 10.25ZM64.738 10.565L63.413 12.685L63.4301 12.6957L63.4474 12.7061L64.738 10.565ZM69.778 16.19L67.5255 17.2745L67.5309 17.2858L67.5364 17.2969L69.778 16.19ZM71.578 24.785V27.285H74.078V24.785H71.578ZM48.718 24.785H46.218V27.285H48.718V24.785ZM48.718 19.25V16.75H46.218V19.25H48.718ZM66.403 19.25L67.7533 21.354L74.9269 16.75H66.403V19.25ZM63.388 21.185L60.8982 21.4113L61.2712 25.5141L64.7383 23.289L63.388 21.185ZM62.398 17.855L60.236 19.1103L60.245 19.1259L60.2542 19.1412L62.398 17.855ZM60.238 15.74L59.0303 17.9289L59.0458 17.9375L59.0615 17.9459L60.238 15.74ZM51.373 18.08L53.5349 19.3353L53.5435 19.3206L53.5519 19.3057L51.373 18.08ZM51.643 25.505L49.5292 26.84L49.5499 26.8726L49.5715 26.9046L51.643 25.505ZM54.883 28.07L53.9041 30.3704L53.9127 30.3741L53.9214 30.3777L54.883 28.07ZM65.773 28.25L66.3977 30.6707L66.411 30.6673L66.4243 30.6637L65.773 28.25ZM70.903 26.135H73.403V21.764L69.6354 23.9802L70.903 26.135ZM70.903 31.985L72.3059 34.0543L73.403 33.3105V31.985H70.903ZM64.828 34.775L65.502 37.1824L65.5126 37.1795L65.5231 37.1764L64.828 34.775ZM57.538 33.22C54.7264 33.22 52.3036 32.7077 50.2191 31.7417L48.1168 36.2783C50.9524 37.5923 54.1095 38.22 57.538 38.22V33.22ZM50.2298 31.7467C48.1659 30.7785 46.6027 29.4652 45.4645 27.8185L41.3514 30.6615C43.0333 33.0948 45.31 34.9615 48.1062 36.2733L50.2298 31.7467ZM45.4742 27.8326C44.3723 26.215 43.793 24.3152 43.793 22.04H38.793C38.793 25.2248 39.6236 28.125 41.3418 30.6474L45.4742 27.8326ZM43.793 22.04C43.793 19.8134 44.3483 17.9697 45.3933 16.4139L41.2426 13.6261C39.5876 16.0903 38.793 18.9266 38.793 22.04H43.793ZM45.4028 16.3997C46.4904 14.7562 47.9828 13.4549 49.9479 12.4975L47.758 8.00252C45.0432 9.32515 42.8456 11.2038 41.2331 13.6403L45.4028 16.3997ZM49.9367 12.5029C51.9272 11.5454 54.2194 11.04 56.863 11.04V6.04C53.5666 6.04 50.5188 6.67455 47.7693 7.99708L49.9367 12.5029ZM56.863 11.04C59.5848 11.04 61.7276 11.6316 63.413 12.685L66.063 8.445C63.4284 6.79838 60.3212 6.04 56.863 6.04V11.04ZM63.4474 12.7061C65.1975 13.761 66.5543 15.2576 67.5255 17.2745L72.0305 15.1055C70.6616 12.2624 68.6585 10.009 66.0285 8.42386L63.4474 12.7061ZM67.5364 17.2969C68.5334 19.3159 69.078 21.7867 69.078 24.785H74.078C74.078 21.1833 73.4226 17.9241 72.0195 15.083L67.5364 17.2969ZM71.578 22.285H48.718V27.285H71.578V22.285ZM51.218 24.785V19.25H46.218V24.785H51.218ZM48.718 21.75H66.403V16.75H48.718V21.75ZM65.0527 17.146L62.0377 19.081L64.7383 23.289L67.7533 21.354L65.0527 17.146ZM65.8777 20.9587C65.7323 19.3595 65.3194 17.8649 64.5417 16.5688L60.2542 19.1412C60.5566 19.6451 60.8036 20.3705 60.8982 21.4113L65.8777 20.9587ZM64.5599 16.5997C63.7996 15.2901 62.7477 14.2452 61.4144 13.5341L59.0615 17.9459C59.5282 18.1948 59.9164 18.5599 60.236 19.1103L64.5599 16.5997ZM61.4457 13.5511C60.1277 12.8239 58.6411 12.52 57.088 12.52V17.52C57.9948 17.52 58.6082 17.6961 59.0303 17.9289L61.4457 13.5511ZM57.088 12.52C55.4047 12.52 53.8072 12.858 52.3973 13.6511L54.8486 18.0089C55.3587 17.722 56.0712 17.52 57.088 17.52V12.52ZM52.3973 13.6511C51.0383 14.4155 49.9585 15.4953 49.194 16.8543L53.5519 19.3057C53.8674 18.7447 54.2877 18.3245 54.8486 18.0089L52.3973 13.6511ZM49.211 16.8247C48.4142 18.197 48.063 19.7404 48.063 21.365H53.063C53.063 20.4696 53.2518 19.823 53.5349 19.3353L49.211 16.8247ZM48.063 21.365C48.063 23.3615 48.5101 25.2263 49.5292 26.84L53.7567 24.17C53.3358 23.5037 53.063 22.6085 53.063 21.365H48.063ZM49.5715 26.9046C50.6285 28.4691 52.1162 29.6096 53.9041 30.3704L55.8619 25.7696C54.8298 25.3304 54.1574 24.7609 53.7144 24.1054L49.5715 26.9046ZM53.9214 30.3777C55.7481 31.1388 57.8501 31.47 60.148 31.47V26.47C58.3058 26.47 56.8979 26.2012 55.8445 25.7623L53.9214 30.3777ZM60.148 31.47C62.2522 31.47 64.337 31.2025 66.3977 30.6707L65.1483 25.8293C63.489 26.2575 61.8238 26.47 60.148 26.47V31.47ZM66.4243 30.6637C68.5084 30.1013 70.429 29.3143 72.1705 28.2898L69.6354 23.9802C68.317 24.7557 66.8175 25.3787 65.1217 25.8363L66.4243 30.6637ZM68.403 26.135V31.985H73.403V26.135H68.403ZM69.5001 29.9157C67.9696 30.9534 66.1884 31.7786 64.1328 32.3736L65.5231 37.1764C68.0275 36.4514 70.2964 35.4166 72.3059 34.0543L69.5001 29.9157ZM64.1539 32.3676C62.1472 32.9295 59.9464 33.22 57.538 33.22V38.22C60.3496 38.22 63.0087 37.8805 65.502 37.1824L64.1539 32.3676ZM78.6598 0.349998V-2.15H76.1598V0.349998H78.6598ZM87.8848 0.349998H90.3848V-2.15H87.8848V0.349998ZM87.8848 35V37.5H90.3848V35H87.8848ZM78.6598 35H76.1598V37.5H78.6598V35ZM78.6598 2.85H87.8848V-2.15H78.6598V2.85ZM85.3848 0.349998V35H90.3848V0.349998H85.3848ZM87.8848 32.5H78.6598V37.5H87.8848V32.5ZM81.1598 35V0.349998H76.1598V35H81.1598ZM96.0921 0.349998V-2.15H93.5921V0.349998H96.0921ZM105.317 0.349998H107.817V-2.15H105.317V0.349998ZM105.317 35V37.5H107.817V35H105.317ZM96.0921 35H93.5921V37.5H96.0921V35ZM96.0921 2.85H105.317V-2.15H96.0921V2.85ZM102.817 0.349998V35H107.817V0.349998H102.817ZM105.317 32.5H96.0921V37.5H105.317V32.5ZM98.5921 35V0.349998H93.5921V35H98.5921ZM159.741 28.475L160.239 30.925L163.992 30.1626L161.784 27.0334L159.741 28.475ZM156.861 29.06H154.361V32.1189L157.359 31.51L156.861 29.06ZM156.861 1.25V-1.25H154.361V1.25H156.861ZM165.906 1.25H168.406V-1.25H165.906V1.25ZM165.906 35V37.5H168.406V35H165.906ZM154.161 35L152.115 36.4361L152.862 37.5H154.161V35ZM134.676 7.235L134.171 4.78658L130.444 5.55574L132.63 8.6711L134.676 7.235ZM137.511 6.65H140.011V3.58145L137.006 4.20158L137.511 6.65ZM137.511 35V37.5H140.011V35H137.511ZM128.466 35H125.966V37.5H128.466V35ZM128.466 1.25V-1.25H125.966V1.25H128.466ZM140.526 1.25L142.569 -0.191578L141.822 -1.25H140.526V1.25ZM159.244 26.025L156.364 26.61L157.359 31.51L160.239 30.925L159.244 26.025ZM159.361 29.06V1.25H154.361V29.06H159.361ZM156.861 3.75H165.906V-1.25H156.861V3.75ZM163.406 1.25V35H168.406V1.25H163.406ZM165.906 32.5H154.161V37.5H165.906V32.5ZM156.208 33.5639L136.723 5.79889L132.63 8.6711L152.115 36.4361L156.208 33.5639ZM135.182 9.68341L138.017 9.09841L137.006 4.20158L134.171 4.78658L135.182 9.68341ZM135.011 6.65V35H140.011V6.65H135.011ZM137.511 32.5H128.466V37.5H137.511V32.5ZM130.966 35V1.25H125.966V35H130.966ZM128.466 3.75H140.526V-1.25H128.466V3.75ZM138.484 2.69157L157.699 29.9166L161.784 27.0334L142.569 -0.191578L138.484 2.69157ZM179.887 15.065V12.565H177.387V15.065H179.887ZM204.367 15.065H206.867V12.565H204.367V15.065ZM204.367 22.94V25.44H206.867V22.94H204.367ZM179.887 22.94H177.387V25.44H179.887V22.94ZM205.222 1.25H207.722V-1.25H205.222V1.25ZM205.222 9.125V11.625H207.722V9.125H205.222ZM180.202 9.125L178.434 7.35723L174.166 11.625H180.202V9.125ZM184.657 4.67H187.157V-1.36553L182.889 2.90223L184.657 4.67ZM184.657 35V37.5H187.157V35H184.657ZM175.342 35H172.842V37.5H175.342V35ZM175.342 1.25V-1.25H172.842V1.25H175.342ZM179.887 17.565H204.367V12.565H179.887V17.565ZM201.867 15.065V22.94H206.867V15.065H201.867ZM204.367 20.44H179.887V25.44H204.367V20.44ZM182.387 22.94V15.065H177.387V22.94H182.387ZM202.722 1.25V9.125H207.722V1.25H202.722ZM205.222 6.625H180.202V11.625H205.222V6.625ZM181.97 10.8928L186.425 6.43777L182.889 2.90223L178.434 7.35723L181.97 10.8928ZM182.157 4.67V35H187.157V4.67H182.157ZM184.657 32.5H175.342V37.5H184.657V32.5ZM177.842 35V1.25H172.842V35H177.842ZM175.342 3.75H205.222V-1.25H175.342V3.75ZM223.784 5.345V2.845H221.284V5.345H223.784ZM233.144 5.345H235.644V2.845H233.144V5.345ZM233.144 35V37.5H235.644V35H233.144ZM223.784 35H221.284V37.5H223.784V35ZM210.914 1.25V-1.25H208.414V1.25H210.914ZM246.014 1.25H248.514V-1.25H246.014V1.25ZM246.014 9.53V12.03H248.514V9.53H246.014ZM210.914 9.53H208.414V12.03H210.914V9.53ZM223.784 7.845H233.144V2.845H223.784V7.845ZM230.644 5.345V35H235.644V5.345H230.644ZM233.144 32.5H223.784V37.5H233.144V32.5ZM226.284 35V5.345H221.284V35H226.284ZM210.914 3.75H246.014V-1.25H210.914V3.75ZM243.514 1.25V9.53H248.514V1.25H243.514ZM246.014 7.03H210.914V12.03H246.014V7.03ZM213.414 9.53V1.25H208.414V9.53H213.414Z" fill="black" mask="url(#path-1-outside-1_473_8639)"/>
</g>
</svg>
