<svg width="411" height="219" viewBox="0 0 411 219" fill="none" xmlns="http://www.w3.org/2000/svg">
<rect x="6.10352e-05" width="411" height="219" rx="23" fill="url(#paint0_linear_2057_2)"/>
<rect x="6.10352e-05" width="411" height="219" rx="23" fill="url(#paint1_linear_2057_2)"/>
<g opacity="0.7">
<mask id="mask0_2057_2" style="mask-type:alpha" maskUnits="userSpaceOnUse" x="0" y="0" width="411" height="219">
<rect x="6.10352e-05" width="411" height="219" rx="23" fill="url(#paint2_linear_2057_2)"/>
</mask>
<g mask="url(#mask0_2057_2)">
<g opacity="0.7">
<g clip-path="url(#clip0_2057_2)">
<g opacity="0.1">
<path fill-rule="evenodd" clip-rule="evenodd" d="M430.058 -0.128184C430.058 -0.275184 429.94 -0.393611 429.793 -0.393611L-151.02 -0.393585C-151.167 -0.393585 -151.285 -0.275159 -151.285 -0.128159C-151.285 0.0188414 -151.167 0.137268 -151.02 0.137268L429.793 0.137243C429.94 0.137243 430.058 0.018816 430.058 -0.128184Z" fill="url(#paint3_radial_2057_2)"/>
<path fill-rule="evenodd" clip-rule="evenodd" d="M430.058 38.5532C430.058 38.4062 429.94 38.2878 429.793 38.2878L-151.02 38.2878C-151.167 38.2878 -151.285 38.4062 -151.285 38.5532C-151.285 38.7002 -151.167 38.8187 -151.02 38.8187L429.793 38.8186C429.94 38.8186 430.058 38.7002 430.058 38.5532Z" fill="url(#paint4_radial_2057_2)"/>
<path fill-rule="evenodd" clip-rule="evenodd" d="M430.058 77.2305C430.058 77.0876 429.94 76.9692 429.793 76.9692L-151.02 76.9692C-151.167 76.9692 -151.285 77.0876 -151.285 77.2305C-151.285 77.3775 -151.167 77.496 -151.02 77.496L429.793 77.4959C429.94 77.4959 430.058 77.3775 430.058 77.2305Z" fill="url(#paint5_radial_2057_2)"/>
<path fill-rule="evenodd" clip-rule="evenodd" d="M430.058 115.912C430.058 115.765 429.94 115.647 429.793 115.647L-151.02 115.647C-151.167 115.647 -151.285 115.765 -151.285 115.912C-151.285 116.059 -151.167 116.177 -151.02 116.177L429.793 116.177C429.94 116.177 430.058 116.059 430.058 115.912Z" fill="url(#paint6_radial_2057_2)"/>
<path fill-rule="evenodd" clip-rule="evenodd" d="M430.058 154.593C430.058 154.446 429.94 154.328 429.793 154.328L-151.02 154.328C-151.167 154.328 -151.285 154.446 -151.285 154.593C-151.285 154.74 -151.167 154.859 -151.02 154.859L429.793 154.859C429.94 154.859 430.058 154.736 430.058 154.593Z" fill="url(#paint7_radial_2057_2)"/>
<path fill-rule="evenodd" clip-rule="evenodd" d="M430.058 193.271C430.058 193.124 429.94 193.005 429.793 193.005L-151.02 193.005C-151.167 193.005 -151.285 193.124 -151.285 193.271C-151.285 193.418 -151.167 193.536 -151.02 193.536L429.793 193.536C429.94 193.536 430.058 193.418 430.058 193.271Z" fill="url(#paint8_radial_2057_2)"/>
<path fill-rule="evenodd" clip-rule="evenodd" d="M17.4831 -457.662C17.3377 -457.662 17.2197 -457.543 17.2197 -457.396L17.2197 565.896C17.2197 566.041 17.3373 566.16 17.4831 566.16C17.6285 566.16 17.7461 566.041 17.7461 565.896L17.746 -457.396C17.746 -457.543 17.6284 -457.662 17.4831 -457.662Z" fill="url(#paint9_radial_2057_2)"/>
<path fill-rule="evenodd" clip-rule="evenodd" d="M55.9231 -457.662C55.7778 -457.662 55.6598 -457.543 55.6598 -457.396L55.6598 565.896C55.6598 566.041 55.7778 566.16 55.9232 566.16C56.0686 566.16 56.1866 566.041 56.1866 565.896L56.1865 -457.396C56.1865 -457.543 56.0685 -457.662 55.9231 -457.662Z" fill="url(#paint10_radial_2057_2)"/>
<path fill-rule="evenodd" clip-rule="evenodd" d="M94.3632 -457.662C94.2179 -457.662 94.0999 -457.543 94.0999 -457.396L94.0999 565.896C94.0999 566.041 94.2179 566.16 94.3633 566.16C94.5086 566.16 94.6267 566.041 94.6267 565.896L94.6266 -457.396C94.6266 -457.543 94.5086 -457.662 94.3632 -457.662Z" fill="url(#paint11_radial_2057_2)"/>
<path fill-rule="evenodd" clip-rule="evenodd" d="M132.803 -457.662C132.658 -457.662 132.54 -457.543 132.54 -457.396L132.54 565.896C132.54 566.041 132.658 566.16 132.803 566.16C132.949 566.16 133.067 566.041 133.067 565.896L133.067 -457.396C133.067 -457.543 132.949 -457.662 132.803 -457.662Z" fill="url(#paint12_radial_2057_2)"/>
<path fill-rule="evenodd" clip-rule="evenodd" d="M171.243 -457.662C171.098 -457.662 170.98 -457.543 170.98 -457.396L170.98 565.896C170.98 566.041 171.098 566.16 171.243 566.16C171.389 566.16 171.507 566.041 171.507 565.896L171.507 -457.396C171.507 -457.543 171.389 -457.662 171.243 -457.662Z" fill="url(#paint13_radial_2057_2)"/>
<path fill-rule="evenodd" clip-rule="evenodd" d="M209.683 -457.662C209.538 -457.662 209.421 -457.543 209.421 -457.396L209.421 565.896C209.421 566.041 209.538 566.16 209.684 566.16C209.829 566.16 209.947 566.041 209.947 565.896L209.947 -457.396C209.947 -457.543 209.829 -457.662 209.683 -457.662Z" fill="url(#paint14_radial_2057_2)"/>
<path fill-rule="evenodd" clip-rule="evenodd" d="M248.124 -457.662C247.979 -457.662 247.861 -457.543 247.861 -457.396L247.861 565.896C247.861 566.041 247.979 566.16 248.124 566.16C248.269 566.16 248.387 566.041 248.387 565.896L248.387 -457.396C248.387 -457.543 248.269 -457.662 248.124 -457.662Z" fill="url(#paint15_radial_2057_2)"/>
<path fill-rule="evenodd" clip-rule="evenodd" d="M286.566 -457.662C286.419 -457.662 286.3 -457.543 286.3 -457.396L286.3 565.896C286.3 566.041 286.419 566.16 286.566 566.16C286.709 566.16 286.827 566.041 286.827 565.896L286.827 -457.396C286.827 -457.543 286.709 -457.662 286.566 -457.662Z" fill="url(#paint16_radial_2057_2)"/>
<path fill-rule="evenodd" clip-rule="evenodd" d="M325.002 -457.662C324.859 -457.662 324.741 -457.543 324.741 -457.396L324.741 565.896C324.741 566.041 324.859 566.16 325.002 566.16C325.149 566.16 325.268 566.041 325.268 565.896L325.268 -457.396C325.268 -457.543 325.149 -457.662 325.002 -457.662Z" fill="url(#paint17_radial_2057_2)"/>
<path fill-rule="evenodd" clip-rule="evenodd" d="M363.443 -457.662C363.3 -457.662 363.181 -457.543 363.181 -457.396L363.181 565.896C363.181 566.041 363.3 566.16 363.443 566.16C363.59 566.16 363.708 566.041 363.708 565.896L363.708 -457.396C363.708 -457.543 363.59 -457.662 363.443 -457.662Z" fill="url(#paint18_radial_2057_2)"/>
<path fill-rule="evenodd" clip-rule="evenodd" d="M401.883 -457.662C401.74 -457.662 401.622 -457.543 401.622 -457.396L401.622 565.896C401.622 566.041 401.74 566.16 401.883 566.16C402.03 566.16 402.149 566.041 402.149 565.896L402.149 -457.396C402.149 -457.543 402.03 -457.662 401.883 -457.662Z" fill="url(#paint19_radial_2057_2)"/>
</g>
<g filter="url(#filter0_f_2057_2)">
<path d="M240.988 -14.7832C240.988 -32.2607 195.832 -46.4291 140.129 -46.4291C84.4267 -46.4291 39.2709 -32.2607 39.2709 -14.7832C39.2709 2.69429 84.4267 16.8626 140.129 16.8626C195.832 16.8626 240.988 2.69428 240.988 -14.7832Z" fill="#01FFE0"/>
</g>
</g>
</g>
</g>
</g>
<defs>
<filter id="filter0_f_2057_2" x="-384.729" y="-470.429" width="1049.72" height="911.292" filterUnits="userSpaceOnUse" color-interpolation-filters="sRGB">
<feFlood flood-opacity="0" result="BackgroundImageFix"/>
<feBlend mode="normal" in="SourceGraphic" in2="BackgroundImageFix" result="shape"/>
<feGaussianBlur stdDeviation="212" result="effect1_foregroundBlur_2057_2"/>
</filter>
<linearGradient id="paint0_linear_2057_2" x1="205.5" y1="0" x2="205.5" y2="219" gradientUnits="userSpaceOnUse">
<stop stop-color="#1F2533"/>
<stop offset="1" stop-color="#10121D" stop-opacity="0"/>
</linearGradient>
<linearGradient id="paint1_linear_2057_2" x1="205.5" y1="0" x2="205.5" y2="219" gradientUnits="userSpaceOnUse">
<stop stop-color="#232530"/>
<stop offset="1" stop-color="#10121D" stop-opacity="0.3"/>
</linearGradient>
<linearGradient id="paint2_linear_2057_2" x1="205.5" y1="0" x2="205.5" y2="219" gradientUnits="userSpaceOnUse">
<stop stop-color="#1F2533"/>
<stop offset="1" stop-color="#10121D" stop-opacity="0"/>
</linearGradient>
<radialGradient id="paint3_radial_2057_2" cx="0" cy="0" r="1" gradientUnits="userSpaceOnUse" gradientTransform="translate(147.491 35.1001) rotate(4.39736) scale(249.776 285.755)">
<stop stop-color="white"/>
<stop offset="1" stop-color="white" stop-opacity="0"/>
</radialGradient>
<radialGradient id="paint4_radial_2057_2" cx="0" cy="0" r="1" gradientUnits="userSpaceOnUse" gradientTransform="translate(147.491 35.0986) rotate(4.39736) scale(249.776 285.755)">
<stop stop-color="white"/>
<stop offset="1" stop-color="white" stop-opacity="0"/>
</radialGradient>
<radialGradient id="paint5_radial_2057_2" cx="0" cy="0" r="1" gradientUnits="userSpaceOnUse" gradientTransform="translate(147.491 35.0974) rotate(4.39733) scale(249.776 285.753)">
<stop stop-color="white"/>
<stop offset="1" stop-color="white" stop-opacity="0"/>
</radialGradient>
<radialGradient id="paint6_radial_2057_2" cx="0" cy="0" r="1" gradientUnits="userSpaceOnUse" gradientTransform="translate(147.491 35.1033) rotate(4.39695) scale(249.776 285.729)">
<stop stop-color="white"/>
<stop offset="1" stop-color="white" stop-opacity="0"/>
</radialGradient>
<radialGradient id="paint7_radial_2057_2" cx="0" cy="0" r="1" gradientUnits="userSpaceOnUse" gradientTransform="translate(147.491 35.1054) rotate(4.39695) scale(249.776 285.729)">
<stop stop-color="white"/>
<stop offset="1" stop-color="white" stop-opacity="0"/>
</radialGradient>
<radialGradient id="paint8_radial_2057_2" cx="0" cy="0" r="1" gradientUnits="userSpaceOnUse" gradientTransform="translate(147.491 35.0928) rotate(4.39736) scale(249.776 285.755)">
<stop stop-color="white"/>
<stop offset="1" stop-color="white" stop-opacity="0"/>
</radialGradient>
<radialGradient id="paint9_radial_2057_2" cx="0" cy="0" r="1" gradientUnits="userSpaceOnUse" gradientTransform="translate(147.491 35.0987) rotate(4.39719) scale(249.777 285.745)">
<stop stop-color="white"/>
<stop offset="1" stop-color="white" stop-opacity="0"/>
</radialGradient>
<radialGradient id="paint10_radial_2057_2" cx="0" cy="0" r="1" gradientUnits="userSpaceOnUse" gradientTransform="translate(147.491 35.0987) rotate(4.39717) scale(249.778 285.745)">
<stop stop-color="white"/>
<stop offset="1" stop-color="white" stop-opacity="0"/>
</radialGradient>
<radialGradient id="paint11_radial_2057_2" cx="0" cy="0" r="1" gradientUnits="userSpaceOnUse" gradientTransform="translate(147.49 35.0987) rotate(4.39727) scale(249.772 285.745)">
<stop stop-color="white"/>
<stop offset="1" stop-color="white" stop-opacity="0"/>
</radialGradient>
<radialGradient id="paint12_radial_2057_2" cx="0" cy="0" r="1" gradientUnits="userSpaceOnUse" gradientTransform="translate(147.49 35.0987) rotate(4.39727) scale(249.772 285.745)">
<stop stop-color="white"/>
<stop offset="1" stop-color="white" stop-opacity="0"/>
</radialGradient>
<radialGradient id="paint13_radial_2057_2" cx="0" cy="0" r="1" gradientUnits="userSpaceOnUse" gradientTransform="translate(147.49 35.0987) rotate(4.39707) scale(249.784 285.745)">
<stop stop-color="white"/>
<stop offset="1" stop-color="white" stop-opacity="0"/>
</radialGradient>
<radialGradient id="paint14_radial_2057_2" cx="0" cy="0" r="1" gradientUnits="userSpaceOnUse" gradientTransform="translate(147.491 35.0987) rotate(4.39719) scale(249.777 285.745)">
<stop stop-color="white"/>
<stop offset="1" stop-color="white" stop-opacity="0"/>
</radialGradient>
<radialGradient id="paint15_radial_2057_2" cx="0" cy="0" r="1" gradientUnits="userSpaceOnUse" gradientTransform="translate(147.491 35.0987) rotate(4.39719) scale(249.777 285.745)">
<stop stop-color="white"/>
<stop offset="1" stop-color="white" stop-opacity="0"/>
</radialGradient>
<radialGradient id="paint16_radial_2057_2" cx="0" cy="0" r="1" gradientUnits="userSpaceOnUse" gradientTransform="translate(147.487 35.0987) rotate(4.39707) scale(249.784 285.745)">
<stop stop-color="white"/>
<stop offset="1" stop-color="white" stop-opacity="0"/>
</radialGradient>
<radialGradient id="paint17_radial_2057_2" cx="0" cy="0" r="1" gradientUnits="userSpaceOnUse" gradientTransform="translate(147.485 35.0987) rotate(4.39707) scale(249.784 285.745)">
<stop stop-color="white"/>
<stop offset="1" stop-color="white" stop-opacity="0"/>
</radialGradient>
<radialGradient id="paint18_radial_2057_2" cx="0" cy="0" r="1" gradientUnits="userSpaceOnUse" gradientTransform="translate(147.484 35.0987) rotate(4.39707) scale(249.784 285.745)">
<stop stop-color="white"/>
<stop offset="1" stop-color="white" stop-opacity="0"/>
</radialGradient>
<radialGradient id="paint19_radial_2057_2" cx="0" cy="0" r="1" gradientUnits="userSpaceOnUse" gradientTransform="translate(147.483 35.0987) rotate(4.39707) scale(249.784 285.745)">
<stop stop-color="white"/>
<stop offset="1" stop-color="white" stop-opacity="0"/>
</radialGradient>
<clipPath id="clip0_2057_2">
<rect width="784" height="844.842" fill="white" transform="translate(-151.421 769.421) rotate(-90)"/>
</clipPath>
</defs>
</svg>
