<svg width="22" height="22" viewBox="0 0 22 22" fill="none" xmlns="http://www.w3.org/2000/svg">
<path d="M5.56758 21.9813L5.97261 21.8681C6.36219 21.7592 6.58974 21.3551 6.48088 20.9655L1.85015 4.3939C1.7848 4.16003 1.62923 3.96171 1.41765 3.84255C1.20607 3.72339 0.955827 3.69316 0.721964 3.75852L0.669657 3.77312C0.182632 3.9092 -0.101871 4.41432 0.0341983 4.90134L4.66505 21.473C4.77391 21.8625 5.17798 22.0901 5.56758 21.9813Z" fill="#C5C3BB"/>
<path d="M21.8749 10.4007C20.4064 9.66844 19.0479 8.73382 17.839 7.62412C17.7374 7.53111 17.6977 7.38833 17.7366 7.25619C18.3356 4.99026 18.7804 2.68637 19.068 0.360329C19.1135 -0.0265672 18.9049 -0.14036 18.6849 0.125157C14.3683 5.28757 6.89971 -0.819326 2.4542 3.87274C2.50757 3.97267 2.54956 4.07828 2.57937 4.18757L5.58351 14.9448C10.0366 10.3096 17.4787 16.3786 21.7876 11.2276C22.0076 10.9621 22.0494 10.4765 21.8749 10.4007Z" fill="#C5C3BB"/>
</svg>
