<svg width="44" height="44" viewBox="0 0 44 44" fill="none" xmlns="http://www.w3.org/2000/svg">
<path d="M44 22C44 25.1796 42.4531 27.9296 39.9609 29.4765C40.5626 32.3125 39.7891 35.4063 37.5547 37.5547C35.4063 39.7891 32.3125 40.6485 29.4765 40.0469C27.8437 42.4531 25.1797 44 22 44C18.9063 44 16.1563 42.4531 14.5235 40.0469C11.6874 40.6485 8.67969 39.7891 6.44531 37.5547C4.29687 35.4063 3.4375 32.3125 4.03906 29.4765C1.63281 27.9296 0 25.1796 0 22C0 18.9063 1.63281 16.1563 4.03906 14.6094C3.4375 11.7735 4.29687 8.67969 6.44531 6.44531C8.67969 4.29688 11.7735 3.43749 14.5235 4.03906C16.1563 1.63281 18.9063 0 22 0C25.1797 0 27.8437 1.63281 29.4765 4.03906C32.3125 3.43749 35.4063 4.29688 37.5547 6.44531C39.7891 8.67969 40.5626 11.7735 39.9609 14.6094C42.3672 16.1563 44 18.9063 44 22ZM30.3359 18.6485C31.1953 17.875 31.1953 16.5859 30.3359 15.8125C29.5625 14.9531 28.2735 14.9531 27.5 15.8125L19.3359 23.9765L16.5859 21.3125C15.8124 20.4531 14.5235 20.4531 13.75 21.3125C12.8906 22.0859 12.8906 23.375 13.75 24.1485L17.875 28.2735C18.2187 28.7031 18.7344 28.875 19.3359 28.875C19.8515 28.875 20.3672 28.7031 20.7109 28.2735L30.3359 18.6485Z" fill="#cc0000"/>
</svg>
