<svg width="635" height="504" viewBox="0 0 635 504" fill="none" xmlns="http://www.w3.org/2000/svg">
<rect x="0.75" y="9.62671" width="623.64" height="484.747" stroke="#cc0000" stroke-width="1.5"/>
<path d="M495.971 6.10352e-05H625.14V9.86307H483.152L495.971 6.10352e-05Z" fill="#cc0000"/>
<path d="M257.354 494.137H231.717L246.507 504H270.172L257.354 494.137Z" fill="#cc0000"/>
<path d="M289.893 494.137H264.256L279.046 504H302.711L289.893 494.137Z" fill="#cc0000"/>
<path d="M322.432 494.137H296.795L311.585 504H335.25L322.432 494.137Z" fill="#cc0000"/>
<path d="M355.955 494.137H330.318L345.109 504H368.773L355.955 494.137Z" fill="#cc0000"/>
<path d="M635 6.10352e-05L635 129.206L625.14 142.027L625.14 6.0604e-05L635 6.10352e-05Z" fill="#cc0000"/>
<path d="M17.75 495.123H145.933V498.082H25.6382L17.75 495.123Z" fill="#cc0000"/>
<path d="M95.6445 495.123H224.814L234.674 501.041H114.379L95.6445 495.123Z" fill="#cc0000"/>
</svg>
