<svg width="24" height="25" viewBox="0 0 24 25" fill="none" xmlns="http://www.w3.org/2000/svg">
<path d="M18.9501 15.3671C18.4588 14.8555 17.8661 14.582 17.238 14.582C16.615 14.582 16.0173 14.8504 15.5057 15.362L13.905 16.9576C13.7733 16.8867 13.6416 16.8209 13.515 16.755C13.3326 16.6638 13.1604 16.5777 13.0135 16.4866C11.5142 15.5343 10.1516 14.2933 8.8447 12.6875C8.21153 11.8872 7.78604 11.2135 7.47706 10.5297C7.89242 10.1498 8.27738 9.75469 8.65222 9.37479C8.79405 9.23296 8.93588 9.08606 9.07771 8.94423C10.1414 7.88051 10.1414 6.50273 9.07771 5.439L7.69487 4.05616C7.53784 3.89913 7.37575 3.73704 7.22379 3.57495C6.91987 3.2609 6.60075 2.93671 6.2715 2.63279C5.78016 2.14652 5.19258 1.88818 4.5746 1.88818C3.95663 1.88818 3.35892 2.14652 2.85238 2.63279C2.84732 2.63786 2.84732 2.63786 2.84225 2.64292L1.12003 4.38034C0.47166 5.02871 0.101889 5.8189 0.0208432 6.73574C-0.100725 8.21482 0.334896 9.5926 0.66921 10.4942C1.4898 12.7078 2.71562 14.7593 4.54421 16.9576C6.76284 19.6068 9.43229 21.6988 12.4816 23.1728C13.6467 23.725 15.2017 24.3784 16.9392 24.4898C17.0455 24.4949 17.157 24.5 17.2583 24.5C18.4284 24.5 19.4111 24.0795 20.181 23.2438C20.1861 23.2336 20.1962 23.2286 20.2012 23.2184C20.4646 22.8993 20.7686 22.6106 21.0877 22.3016C21.3055 22.0939 21.5284 21.8761 21.7462 21.6482C22.2477 21.1264 22.5111 20.5186 22.5111 19.8955C22.5111 19.2674 22.2426 18.6647 21.731 18.1581L18.9501 15.3671ZM20.7635 20.7009C20.7584 20.7009 20.7584 20.706 20.7635 20.7009C20.566 20.9137 20.3633 21.1062 20.1455 21.3189C19.8163 21.633 19.482 21.9622 19.1679 22.332C18.6563 22.879 18.0535 23.1374 17.2633 23.1374C17.1874 23.1374 17.1063 23.1374 17.0303 23.1323C15.5259 23.0361 14.1279 22.4485 13.0793 21.947C10.2124 20.5591 7.69487 18.5887 5.60287 16.0915C3.87558 14.0096 2.72068 12.0848 1.95581 10.0181C1.48473 8.75681 1.31251 7.77413 1.38849 6.84717C1.43914 6.25453 1.66709 5.76319 2.08751 5.34276L3.8148 3.61547C4.063 3.38247 4.3264 3.25583 4.58473 3.25583C4.90385 3.25583 5.16219 3.44832 5.32428 3.61041C5.32934 3.61547 5.33441 3.62054 5.33947 3.6256C5.64846 3.91433 5.94225 4.21319 6.25124 4.5323C6.40827 4.69439 6.57036 4.85649 6.73245 5.02364L8.11529 6.40649C8.65222 6.94342 8.65222 7.43982 8.11529 7.97675C7.9684 8.12364 7.82657 8.27054 7.67967 8.41237C7.25418 8.84799 6.84895 9.25322 6.40827 9.64832C6.39813 9.65845 6.388 9.66351 6.38294 9.67365C5.94732 10.1093 6.02836 10.5348 6.11954 10.8235C6.12461 10.8387 6.12967 10.8539 6.13474 10.8691C6.49438 11.7403 7.00091 12.5609 7.77085 13.5385L7.77591 13.5436C9.17395 15.2658 10.648 16.6081 12.274 17.6364C12.4816 17.7681 12.6944 17.8745 12.897 17.9758C13.0793 18.0669 13.2516 18.1531 13.3985 18.2442C13.4187 18.2544 13.439 18.2696 13.4593 18.2797C13.6315 18.3658 13.7936 18.4063 13.9607 18.4063C14.3811 18.4063 14.6445 18.1429 14.7307 18.0568L16.463 16.3245C16.6352 16.1522 16.9088 15.9446 17.2279 15.9446C17.5419 15.9446 17.8003 16.1421 17.9573 16.3143C17.9624 16.3194 17.9624 16.3194 17.9674 16.3245L20.7584 19.1155C21.2802 19.6321 21.2802 20.164 20.7635 20.7009Z" fill="#12151F"/>
<path d="M12.9535 6.20908C14.2806 6.43196 15.4862 7.06006 16.4486 8.02248C17.411 8.9849 18.0341 10.1905 18.262 11.5176C18.3177 11.8519 18.6064 12.0849 18.9357 12.0849C18.9762 12.0849 19.0117 12.0798 19.0522 12.0748C19.427 12.014 19.6752 11.6594 19.6145 11.2846C19.3409 9.67885 18.5811 8.21496 17.4211 7.055C16.2612 5.89503 14.7973 5.13522 13.1916 4.86169C12.8167 4.80091 12.4672 5.04911 12.4014 5.41888C12.3355 5.78866 12.5787 6.1483 12.9535 6.20908Z" fill="#12151F"/>
<path d="M23.9528 11.0869C23.502 8.44278 22.2559 6.03674 20.3412 4.12203C18.4265 2.20732 16.0204 0.961242 13.3763 0.510425C13.0065 0.444576 12.657 0.697844 12.5912 1.06762C12.5304 1.44245 12.7786 1.79196 13.1534 1.85781C15.5139 2.25798 17.6667 3.37742 19.3788 5.08445C21.0909 6.79654 22.2052 8.94932 22.6054 11.3098C22.6611 11.6441 22.9498 11.8771 23.2791 11.8771C23.3196 11.8771 23.3551 11.872 23.3956 11.867C23.7654 11.8112 24.0186 11.4567 23.9528 11.0869Z" fill="#12151F"/>
</svg>
