<svg width="50" height="51" viewBox="0 0 50 51" fill="none" xmlns="http://www.w3.org/2000/svg">
<path d="M50 25.9419C50 29.5551 48.2421 32.6801 45.4101 34.438C46.0938 37.6606 45.2149 41.1763 42.6758 43.6177C40.2344 46.1568 36.7187 47.1333 33.4961 46.4498C31.6406 49.184 28.6133 50.9419 25 50.9419C21.4844 50.9419 18.3594 49.184 16.5039 46.4498C13.2812 47.1333 9.86329 46.1568 7.32421 43.6177C4.88281 41.1763 3.90625 37.6606 4.58985 34.438C1.85546 32.6801 0 29.5551 0 25.9419C0 22.4263 1.85546 19.3013 4.58985 17.5434C3.90625 14.3208 4.88281 10.8052 7.32421 8.26611C9.86329 5.82471 13.3789 4.84814 16.5039 5.53173C18.3594 2.79736 21.4844 0.941895 25 0.941895C28.6133 0.941895 31.6406 2.79736 33.4961 5.53173C36.7187 4.84814 40.2344 5.82471 42.6758 8.26611C45.2149 10.8052 46.0938 14.3208 45.4101 17.5434C48.1445 19.3013 50 22.4263 50 25.9419ZM34.4726 22.1333C35.4492 21.2544 35.4492 19.7895 34.4726 18.9106C33.5937 17.934 32.1289 17.934 31.25 18.9106L21.9726 28.188L18.8476 25.1606C17.9687 24.184 16.5039 24.184 15.625 25.1606C14.6485 26.0395 14.6485 27.5044 15.625 28.3833L20.3125 33.0708C20.7031 33.559 21.289 33.7544 21.9726 33.7544C22.5586 33.7544 23.1445 33.559 23.5351 33.0708L34.4726 22.1333Z" fill="#cc0000"/>
</svg>
