<svg width="50" height="50" viewBox="0 0 50 50" fill="none" xmlns="http://www.w3.org/2000/svg">
<path d="M50 13.4569C50 20.889 43.9681 26.9139 36.5274 26.9139C35.2265 26.9139 33.9687 26.7298 32.7787 26.3861L32.7714 26.3969C32.7317 26.38 32.6916 26.3639 32.6511 26.3486C32.5322 26.313 32.4142 26.2759 32.2969 26.2371C32.0359 26.171 31.7626 26.1358 31.4811 26.1358C29.6557 26.1358 28.176 27.6138 28.176 29.437C28.176 30.8544 29.0702 32.063 30.3259 32.531C30.4335 32.5659 30.5416 32.5999 30.65 32.633C30.7764 32.6658 30.9057 32.6911 31.0375 32.7088L31.0207 32.7423C32.7705 33.2398 34.6177 33.5061 36.5274 33.5061C37.2934 33.5061 38.0494 33.4633 38.7931 33.3799C37.409 42.7824 29.2987 50 19.5007 50C8.73078 50 0 41.2794 0 30.522C0 20.7584 7.19222 12.6725 16.5735 11.262C16.495 11.9829 16.4546 12.7152 16.4546 13.4569C16.4546 16.4597 17.1155 19.3083 18.3 21.8655C18.8659 22.8729 19.9455 23.5537 21.1842 23.5537C23.0096 23.5537 24.4894 22.0757 24.4894 20.2525C24.4894 19.9288 24.4427 19.616 24.3559 19.3204C24.3676 19.3168 24.3796 19.313 24.392 19.3093C23.535 17.5398 23.0546 15.5544 23.0546 13.4569C23.0546 12.8183 23.0991 12.1899 23.1854 11.575C23.1937 11.5153 23.2025 11.4557 23.2116 11.3963C24.2045 4.94238 29.7881 0 36.5274 0C43.9681 0 50 6.02489 50 13.4569Z" fill="#cc0000"/>
</svg>
