<svg width="50" height="39" viewBox="0 0 50 39" fill="none" xmlns="http://www.w3.org/2000/svg">
<path d="M25 29.4419C11.1328 29.4419 0 23.1085 0 15.1919C0 7.37418 11.1328 0.941895 25 0.941895C38.7696 0.941895 50 7.37418 50 15.1919C50 23.1085 38.7696 29.4419 25 29.4419ZM8.39848 19.2492C9.57033 20.3378 11.1328 21.2283 12.7929 21.8221C16.0157 23.2075 20.3125 23.9003 25 23.9003C29.5899 23.9003 33.8867 23.2075 37.2071 21.8221C38.7696 21.2283 40.3321 20.3378 41.5039 19.2492C42.6758 18.0617 43.75 16.4783 43.75 14.4003C43.75 12.421 42.6758 10.8378 41.5039 9.65027C40.3321 8.56168 38.7696 7.67102 37.2071 6.97831C33.8867 5.69189 29.5899 4.90026 25 4.90026C20.3125 4.90026 16.0157 5.69189 12.7929 6.97831C11.1328 7.67102 9.57033 8.56168 8.39848 9.65027C7.22652 10.8378 6.25 12.421 6.25 14.4003C6.25 16.4783 7.22652 18.0617 8.39848 19.2492ZM9.375 14.4003C9.375 10.9367 16.3086 8.06689 25 8.06689C33.5937 8.06689 40.625 10.9367 40.625 14.4003C40.625 17.9628 33.5937 20.7335 25 20.7335C16.3086 20.7335 9.375 17.9628 9.375 14.4003ZM0 23.4055C1.26957 24.8898 2.83207 26.2753 4.6875 27.3637V33.6971C1.66011 31.619 0 29.046 0 26.2753V23.4055ZM7.8125 35.4783V29.145C10.5468 30.4315 13.6718 31.421 17.1875 32.0148V38.3481C13.5742 37.7544 10.4492 36.7648 7.8125 35.4783ZM20.3125 38.744V32.4106C21.7774 32.6085 23.3399 32.7075 25 32.7075C26.5625 32.7075 28.125 32.6085 29.6875 32.4106V38.744C28.125 38.9419 26.5625 38.9419 25 38.9419C23.3399 38.9419 21.7774 38.9419 20.3125 38.744ZM32.8125 38.3481V32.0148C36.2304 31.421 39.3554 30.4315 42.1875 29.145V35.5773C39.4532 36.7648 36.3282 37.7544 32.8125 38.3481ZM45.3125 33.6971V27.3637C47.0703 26.2753 48.6328 24.8898 50 23.4055V26.2753C50 29.046 48.2422 31.619 45.3125 33.6971Z" fill="#cc0000"/>
</svg>
