<svg width="56" height="56" viewBox="0 0 56 56" fill="none" xmlns="http://www.w3.org/2000/svg">
<g opacity="0.8" filter="url(#filter0_i_473_8642)">
<path d="M24.2486 3.13801C25.5372 -0.344458 30.4628 -0.34445 31.7514 3.13802L36.8149 16.8219C37.22 17.9167 38.0833 18.78 39.1781 19.1851L52.862 24.2486C56.3445 25.5372 56.3445 30.4628 52.862 31.7514L39.1781 36.8149C38.0833 37.22 37.22 38.0833 36.8149 39.1781L31.7514 52.862C30.4628 56.3445 25.5372 56.3445 24.2486 52.862L19.1851 39.1781C18.78 38.0833 17.9167 37.22 16.8219 36.8149L3.13801 31.7514C-0.344458 30.4628 -0.34445 25.5372 3.13802 24.2486L16.8219 19.1851C17.9167 18.78 18.78 17.9167 19.1851 16.8219L24.2486 3.13801Z" fill="#161823"/>
</g>
<defs>
<filter id="filter0_i_473_8642" x="0.525391" y="0.526123" width="54.9492" height="58.9478" filterUnits="userSpaceOnUse" color-interpolation-filters="sRGB">
<feFlood flood-opacity="0" result="BackgroundImageFix"/>
<feBlend mode="normal" in="SourceGraphic" in2="BackgroundImageFix" result="shape"/>
<feColorMatrix in="SourceAlpha" type="matrix" values="0 0 0 0 0 0 0 0 0 0 0 0 0 0 0 0 0 0 127 0" result="hardAlpha"/>
<feOffset dy="4"/>
<feGaussianBlur stdDeviation="2"/>
<feComposite in2="hardAlpha" operator="arithmetic" k2="-1" k3="1"/>
<feColorMatrix type="matrix" values="0 0 0 0 0 0 0 0 0 0 0 0 0 0 0 0 0 0 0.5 0"/>
<feBlend mode="normal" in2="shape" result="effect1_innerShadow_473_8642"/>
</filter>
</defs>
</svg>
