<svg width="64" height="58" viewBox="0 0 64 58" fill="none" xmlns="http://www.w3.org/2000/svg">
<g filter="url(#filter0_d_470_135)">
<path d="M32 38.5C19.7969 38.5 10 32.1666 10 24.25C10 16.4323 19.7969 10 32 10C44.1172 10 54 16.4323 54 24.25C54 32.1666 44.1172 38.5 32 38.5ZM17.3907 28.3073C18.4219 29.3959 19.7969 30.2864 21.2578 30.8802C24.0938 32.2657 27.875 32.9584 32 32.9584C36.0391 32.9584 39.8203 32.2657 42.7422 30.8802C44.1172 30.2864 45.4922 29.3959 46.5234 28.3073C47.5547 27.1198 48.5 25.5364 48.5 23.4584C48.5 21.4791 47.5547 19.8959 46.5234 18.7084C45.4922 17.6198 44.1172 16.7291 42.7422 16.0364C39.8203 14.75 36.0391 13.9584 32 13.9584C27.875 13.9584 24.0938 14.75 21.2578 16.0364C19.7969 16.7291 18.4219 17.6198 17.3907 18.7084C16.3593 19.8959 15.5 21.4791 15.5 23.4584C15.5 25.5364 16.3593 27.1198 17.3907 28.3073ZM18.25 23.4584C18.25 19.9948 24.3516 17.125 32 17.125C39.5625 17.125 45.75 19.9948 45.75 23.4584C45.75 27.0209 39.5625 29.7916 32 29.7916C24.3516 29.7916 18.25 27.0209 18.25 23.4584ZM10 32.4636C11.1172 33.9479 12.4922 35.3334 14.125 36.4218V42.7552C11.4609 40.6771 10 38.1041 10 35.3334V32.4636ZM16.875 44.5364V38.2032C19.2812 39.4896 22.0312 40.4791 25.125 41.0729V47.4062C21.9453 46.8125 19.1953 45.8229 16.875 44.5364ZM27.875 47.8021V41.4687C29.1641 41.6666 30.5391 41.7657 32 41.7657C33.375 41.7657 34.75 41.6666 36.125 41.4687V47.8021C34.75 48 33.375 48 32 48C30.5391 48 29.1641 48 27.875 47.8021ZM38.875 47.4062V41.0729C41.8828 40.4791 44.6328 39.4896 47.125 38.2032V44.6354C44.7188 45.8229 41.9688 46.8125 38.875 47.4062ZM49.875 42.7552V36.4218C51.4219 35.3334 52.7969 33.9479 54 32.4636V35.3334C54 38.1041 52.4531 40.6771 49.875 42.7552Z" fill="#cc0000"/>
</g>
<defs>
<filter id="filter0_d_470_135" x="0" y="0" width="64" height="58" filterUnits="userSpaceOnUse" color-interpolation-filters="sRGB">
<feFlood flood-opacity="0" result="BackgroundImageFix"/>
<feColorMatrix in="SourceAlpha" type="matrix" values="0 0 0 0 0 0 0 0 0 0 0 0 0 0 0 0 0 0 127 0" result="hardAlpha"/>
<feOffset/>
<feGaussianBlur stdDeviation="5"/>
<feComposite in2="hardAlpha" operator="out"/>
<feColorMatrix type="matrix" values="0 0 0 0 0 0 0 0 0 0 0 0 0 0 0 0 0 0 0.2 0"/>
<feBlend mode="normal" in2="BackgroundImageFix" result="effect1_dropShadow_470_135"/>
<feBlend mode="normal" in="SourceGraphic" in2="effect1_dropShadow_470_135" result="shape"/>
</filter>
</defs>
</svg>
