<svg width="44" height="44" viewBox="0 0 44 44" fill="none" xmlns="http://www.w3.org/2000/svg">
<path d="M44 11.8421C44 18.3823 38.6919 23.6842 32.1441 23.6842C30.9993 23.6842 29.8925 23.5222 28.8453 23.2198L28.8388 23.2293C28.8039 23.2144 28.7686 23.2002 28.733 23.1868C28.6284 23.1555 28.5245 23.1228 28.4212 23.0887C28.1916 23.0305 27.9511 22.9995 27.7034 22.9995C26.097 22.9995 24.7949 24.3001 24.7949 25.9046C24.7949 27.1519 25.5818 28.2155 26.6868 28.6273C26.7815 28.658 26.8766 28.6879 26.972 28.7171C27.0832 28.7459 27.197 28.7682 27.313 28.7837L27.2982 28.8132C28.838 29.251 30.4636 29.4854 32.1441 29.4854C32.8182 29.4854 33.4834 29.4477 34.1379 29.3743C32.9199 37.6485 25.7829 44 17.1606 44C7.68309 44 0 36.3259 0 26.8594C0 18.2674 6.32915 11.1518 14.5847 9.91058C14.5156 10.545 14.48 11.1893 14.48 11.8421C14.48 14.4845 15.0616 16.9913 16.104 19.2417C16.6019 20.1282 17.552 20.7272 18.6421 20.7272C20.2485 20.7272 21.5506 19.4266 21.5506 17.8222C21.5506 17.5373 21.5096 17.2621 21.4332 17.002C21.4435 16.9988 21.4541 16.9955 21.4649 16.9922C20.7108 15.435 20.2881 13.6879 20.2881 11.8421C20.2881 11.2801 20.3272 10.7271 20.4031 10.186C20.4105 10.1335 20.4182 10.081 20.4262 10.0287C21.2999 4.3493 26.2135 0 32.1441 0C38.6919 0 44 5.30191 44 11.8421Z" fill="#cc0000"/>
</svg>
