<svg width="36" height="36" viewBox="0 0 36 36" fill="none" xmlns="http://www.w3.org/2000/svg">
<path d="M12.4307 36H4.16306C1.86757 36 0 34.1324 0 31.8369V23.5693C0 21.2738 1.86757 19.4062 4.16306 19.4062H12.4307C14.7262 19.4062 16.5938 21.2738 16.5938 23.5693V31.8369C16.5938 34.1324 14.7262 36 12.4307 36ZM13.7812 23.5693C13.7812 22.8246 13.1754 22.2188 12.4307 22.2188H4.16306C3.41838 22.2188 2.8125 22.8246 2.8125 23.5693V31.8369C2.8125 32.5816 3.41838 33.1875 4.16306 33.1875H12.4307C13.1754 33.1875 13.7812 32.5816 13.7812 31.8369V23.5693Z" fill="#cc0000"/>
<path d="M31.7812 36H23.625C21.2988 36 19.4062 34.1075 19.4062 31.7812V23.625C19.4062 21.2988 21.2988 19.4062 23.625 19.4062H31.7812C34.1075 19.4062 36 21.2988 36 23.625V31.7812C36 34.1075 34.1075 36 31.7812 36ZM33.1875 23.625C33.1875 22.8496 32.5567 22.2188 31.7812 22.2188H23.625C22.8496 22.2188 22.2188 22.8496 22.2188 23.625V31.7812C22.2188 32.5567 22.8496 33.1875 23.625 33.1875H31.7812C32.5567 33.1875 33.1875 32.5567 33.1875 31.7812V23.625Z" fill="#F6F5F5"/>
<path d="M12.4307 16.5938H4.16306C1.86757 16.5938 0 14.7262 0 12.4307V4.16306C0 1.86757 1.86757 0 4.16306 0H12.4307C14.7262 0 16.5938 1.86757 16.5938 4.16306V12.4307C16.5938 14.7262 14.7262 16.5938 12.4307 16.5938ZM13.7812 4.16306C13.7812 3.41838 13.1754 2.8125 12.4307 2.8125H4.16306C3.41838 2.8125 2.8125 3.41838 2.8125 4.16306V12.4307C2.8125 13.1754 3.41838 13.7812 4.16306 13.7812H12.4307C13.1754 13.7812 13.7812 13.1754 13.7812 12.4307V4.16306Z" fill="#F6F5F5"/>
<path d="M31.7812 16.5938H23.625C21.2988 16.5938 19.4062 14.7012 19.4062 12.375V4.21875C19.4062 1.89253 21.2988 0 23.625 0H31.7812C34.1075 0 36 1.89253 36 4.21875V12.375C36 14.7012 34.1075 16.5938 31.7812 16.5938ZM33.1875 4.21875C33.1875 3.44334 32.5567 2.8125 31.7812 2.8125H23.625C22.8496 2.8125 22.2188 3.44334 22.2188 4.21875V12.375C22.2188 13.1504 22.8496 13.7812 23.625 13.7812H31.7812C32.5567 13.7812 33.1875 13.1504 33.1875 12.375V4.21875Z" fill="#cc0000"/>
</svg>
