<svg width="428" height="47" viewBox="0 0 428 47" fill="none" xmlns="http://www.w3.org/2000/svg">
<g opacity="0.6">
<mask id="path-1-outside-1_473_8638" maskUnits="userSpaceOnUse" x="-3" y="-2" width="433" height="51" fill="black">
<rect fill="white" x="-3" y="-2" width="433" height="51"/>
<path d="M45.405 34.04H42.48L50.895 4.25H60.75L50.49 38H38.475L28.71 9.2H32.535L22.725 38H10.755L0.45 4.25H10.35L18.765 34.04L15.885 33.995L25.695 4.25H35.55L45.405 34.04ZM79.1483 38.72C76.0283 38.72 73.2383 38.15 70.7783 37.01C68.3483 35.87 66.4283 34.28 65.0183 32.24C63.6083 30.17 62.9033 27.77 62.9033 25.04C62.9033 22.37 63.5783 20.03 64.9283 18.02C66.2783 15.98 68.1233 14.39 70.4633 13.25C72.8333 12.11 75.5033 11.54 78.4733 11.54C81.5633 11.54 84.1883 12.215 86.3483 13.565C88.5383 14.885 90.2183 16.76 91.3883 19.19C92.5883 21.62 93.1883 24.485 93.1883 27.785H70.3283V22.25H88.0133L84.9983 24.185C84.8783 22.865 84.5483 21.755 84.0083 20.855C83.4683 19.925 82.7483 19.22 81.8483 18.74C80.9783 18.26 79.9283 18.02 78.6983 18.02C77.3483 18.02 76.1933 18.29 75.2333 18.83C74.2733 19.37 73.5233 20.12 72.9833 21.08C72.4433 22.01 72.1733 23.105 72.1733 24.365C72.1733 25.985 72.5333 27.365 73.2533 28.505C74.0033 29.615 75.0833 30.47 76.4933 31.07C77.9333 31.67 79.6883 31.97 81.7583 31.97C83.6483 31.97 85.5233 31.73 87.3833 31.25C89.2733 30.74 90.9833 30.035 92.5133 29.135V34.985C90.7433 36.185 88.7183 37.115 86.4383 37.775C84.1883 38.405 81.7583 38.72 79.1483 38.72ZM100.27 3.35H109.495V19.775L108.28 22.115V28.595L109.495 30.845V38H100.27V3.35ZM106.525 25.175C106.945 22.385 107.77 19.985 109 17.975C110.23 15.935 111.805 14.36 113.725 13.25C115.675 12.11 117.85 11.54 120.25 11.54C122.77 11.54 124.975 12.11 126.865 13.25C128.785 14.39 130.27 15.98 131.32 18.02C132.4 20.06 132.94 22.445 132.94 25.175C132.94 27.845 132.4 30.215 131.32 32.285C130.27 34.325 128.785 35.915 126.865 37.055C124.975 38.165 122.77 38.72 120.25 38.72C117.82 38.72 115.645 38.165 113.725 37.055C111.805 35.915 110.23 34.325 109 32.285C107.77 30.245 106.945 27.875 106.525 25.175ZM123.67 25.175C123.67 23.885 123.4 22.745 122.86 21.755C122.35 20.765 121.63 19.985 120.7 19.415C119.77 18.845 118.69 18.56 117.46 18.56C116.23 18.56 115.06 18.845 113.95 19.415C112.84 19.985 111.865 20.765 111.025 21.755C110.185 22.745 109.54 23.885 109.09 25.175C109.54 26.435 110.185 27.56 111.025 28.55C111.865 29.54 112.84 30.32 113.95 30.89C115.06 31.43 116.23 31.7 117.46 31.7C118.69 31.7 119.77 31.43 120.7 30.89C121.63 30.32 122.35 29.54 122.86 28.55C123.4 27.56 123.67 26.435 123.67 25.175ZM139.666 15.14C139.846 13.01 140.611 11.075 141.961 9.335C143.311 7.565 145.261 6.155 147.811 5.105C150.361 4.055 153.466 3.53 157.126 3.53C160.246 3.53 162.961 3.92 165.271 4.7C167.611 5.48 169.411 6.575 170.671 7.985C171.961 9.395 172.606 11.06 172.606 12.98C172.606 14.48 172.141 15.86 171.211 17.12C170.311 18.38 168.871 19.385 166.891 20.135C164.941 20.855 162.391 21.2 159.241 21.17V20.225C162.181 20.105 164.701 20.315 166.801 20.855C168.901 21.395 170.506 22.28 171.616 23.51C172.756 24.74 173.326 26.3 173.326 28.19C173.326 30.23 172.666 32.045 171.346 33.635C170.026 35.225 168.106 36.47 165.586 37.37C163.096 38.27 160.036 38.72 156.406 38.72C152.896 38.72 149.836 38.24 147.226 37.28C144.616 36.32 142.576 34.955 141.106 33.185C139.666 31.385 138.901 29.285 138.811 26.885H148.081C148.321 28.385 149.101 29.54 150.421 30.35C151.771 31.16 153.766 31.565 156.406 31.565C158.806 31.565 160.636 31.205 161.896 30.485C163.186 29.765 163.831 28.76 163.831 27.47C163.831 26.72 163.621 26.09 163.201 25.58C162.811 25.07 162.106 24.695 161.086 24.455C160.066 24.185 158.641 24.05 156.811 24.05H151.006V17.75H156.811C159.181 17.75 160.831 17.435 161.761 16.805C162.721 16.175 163.201 15.335 163.201 14.285C163.201 13.145 162.646 12.26 161.536 11.63C160.456 11 158.821 10.685 156.631 10.685C154.291 10.685 152.491 11.075 151.231 11.855C149.971 12.635 149.221 13.73 148.981 15.14H139.666ZM230.472 23.375C230.382 25.415 229.962 27.365 229.212 29.225C228.492 31.055 227.427 32.69 226.017 34.13C224.637 35.57 222.897 36.695 220.797 37.505C218.727 38.315 216.312 38.72 213.552 38.72C210.912 38.72 208.437 38.345 206.127 37.595C203.817 36.815 201.777 35.675 200.007 34.175C198.267 32.675 196.902 30.83 195.912 28.64C194.952 26.45 194.472 23.945 194.472 21.125C194.472 18.305 194.967 15.8 195.957 13.61C196.947 11.42 198.327 9.575 200.097 8.075C201.897 6.575 203.967 5.45 206.307 4.7C208.677 3.92 211.257 3.53 214.047 3.53C217.767 3.53 220.977 4.1 223.677 5.24C226.377 6.38 228.552 7.94 230.202 9.92C231.852 11.9 232.917 14.195 233.397 16.805H223.992C223.692 15.665 223.077 14.69 222.147 13.88C221.247 13.04 220.107 12.41 218.727 11.99C217.377 11.54 215.832 11.315 214.092 11.315C211.992 11.315 210.177 11.69 208.647 12.44C207.117 13.16 205.932 14.255 205.092 15.725C204.252 17.165 203.832 18.965 203.832 21.125C203.832 23.315 204.282 25.16 205.182 26.66C206.082 28.16 207.357 29.285 209.007 30.035C210.687 30.785 212.652 31.16 214.902 31.16C217.092 31.16 219.027 30.86 220.707 30.26C222.387 29.63 223.722 28.715 224.712 27.515C225.732 26.315 226.317 24.875 226.467 23.195L230.472 23.375ZM215.802 27.11V20.54H233.712V38H227.097L225.792 24.635L227.547 27.11H215.802ZM264.85 38L263.68 28.73L264.895 25.175L263.68 21.62L264.85 12.305H274.39L272.77 25.13L274.39 38H264.85ZM267.01 25.175C266.59 27.875 265.75 30.245 264.49 32.285C263.26 34.325 261.685 35.915 259.765 37.055C257.875 38.165 255.715 38.72 253.285 38.72C250.765 38.72 248.545 38.165 246.625 37.055C244.735 35.915 243.25 34.325 242.17 32.285C241.09 30.215 240.55 27.845 240.55 25.175C240.55 22.445 241.09 20.06 242.17 18.02C243.25 15.98 244.735 14.39 246.625 13.25C248.545 12.11 250.765 11.54 253.285 11.54C255.715 11.54 257.875 12.11 259.765 13.25C261.685 14.36 263.275 15.935 264.535 17.975C265.795 19.985 266.62 22.385 267.01 25.175ZM249.865 25.175C249.865 26.435 250.12 27.56 250.63 28.55C251.17 29.54 251.905 30.32 252.835 30.89C253.765 31.43 254.83 31.7 256.03 31.7C257.29 31.7 258.475 31.43 259.585 30.89C260.695 30.32 261.67 29.54 262.51 28.55C263.35 27.56 263.98 26.435 264.4 25.175C263.98 23.885 263.35 22.745 262.51 21.755C261.67 20.765 260.695 19.985 259.585 19.415C258.475 18.845 257.29 18.56 256.03 18.56C254.83 18.56 253.765 18.845 252.835 19.415C251.905 19.985 251.17 20.765 250.63 21.755C250.12 22.745 249.865 23.885 249.865 25.175ZM280.743 12.305H289.968L291.633 22.565V38H282.453V21.17L280.743 12.305ZM300.498 11.54C302.868 11.54 304.878 12.035 306.528 13.025C308.178 14.015 309.438 15.41 310.308 17.21C311.178 19.01 311.613 21.14 311.613 23.6V38H302.433V24.95C302.433 23.03 301.998 21.56 301.128 20.54C300.258 19.52 298.998 19.01 297.348 19.01C296.178 19.01 295.158 19.28 294.288 19.82C293.448 20.36 292.788 21.125 292.308 22.115C291.858 23.105 291.633 24.275 291.633 25.625L288.798 24.14C289.158 21.41 289.893 19.115 291.003 17.255C292.113 15.365 293.478 13.94 295.098 12.98C296.748 12.02 298.548 11.54 300.498 11.54ZM320.433 11.54C322.803 11.54 324.813 12.035 326.463 13.025C328.143 14.015 329.418 15.41 330.288 17.21C331.158 19.01 331.593 21.14 331.593 23.6V38H322.413V24.95C322.413 23.03 321.978 21.56 321.108 20.54C320.238 19.52 318.978 19.01 317.328 19.01C316.158 19.01 315.138 19.28 314.268 19.82C313.428 20.36 312.768 21.125 312.288 22.115C311.838 23.105 311.613 24.275 311.613 25.625L308.778 24.14C309.138 21.41 309.858 19.115 310.938 17.255C312.048 15.365 313.428 13.94 315.078 12.98C316.728 12.02 318.513 11.54 320.433 11.54ZM339.468 11.9L344.103 12.8L348.693 11.9V38H339.468V11.9ZM344.058 9.785C342.468 9.785 341.178 9.395 340.188 8.615C339.198 7.805 338.703 6.71 338.703 5.33C338.703 3.98 339.198 2.9 340.188 2.09C341.178 1.28 342.468 0.874998 344.058 0.874998C345.708 0.874998 347.013 1.28 347.973 2.09C348.963 2.9 349.458 3.98 349.458 5.33C349.458 6.71 348.963 7.805 347.973 8.615C347.013 9.395 345.708 9.785 344.058 9.785ZM355.685 12.305H364.91L366.575 22.565V38H357.395V21.17L355.685 12.305ZM376.025 11.54C378.485 11.54 380.585 12.035 382.325 13.025C384.065 14.015 385.385 15.41 386.285 17.21C387.215 19.01 387.68 21.14 387.68 23.6V38H378.5V24.95C378.5 23.03 378.005 21.56 377.015 20.54C376.055 19.52 374.66 19.01 372.83 19.01C371.57 19.01 370.46 19.28 369.5 19.82C368.57 20.36 367.85 21.125 367.34 22.115C366.83 23.105 366.575 24.275 366.575 25.625L363.74 24.14C364.1 21.41 364.865 19.115 366.035 17.255C367.205 15.365 368.645 13.94 370.355 12.98C372.065 12.02 373.955 11.54 376.025 11.54ZM418.013 31.52V27.155L418.328 26.075V19.775L418.013 18.83V12.305H427.193V31.16C427.193 34.31 426.458 37.01 424.988 39.26C423.518 41.51 421.463 43.22 418.823 44.39C416.213 45.56 413.123 46.145 409.553 46.145C407.183 46.145 404.978 45.83 402.938 45.2C400.928 44.6 398.918 43.7 396.908 42.5V35.57C398.768 36.95 400.718 37.94 402.758 38.54C404.828 39.17 406.898 39.485 408.968 39.485C411.908 39.485 414.143 38.855 415.673 37.595C417.233 36.335 418.013 34.31 418.013 31.52ZM406.988 35.3C404.558 35.3 402.398 34.805 400.508 33.815C398.618 32.825 397.118 31.445 396.008 29.675C394.928 27.875 394.388 25.79 394.388 23.42C394.388 21.02 394.928 18.935 396.008 17.165C397.118 15.395 398.618 14.015 400.508 13.025C402.398 12.035 404.558 11.54 406.988 11.54C408.788 11.54 410.438 11.825 411.938 12.395C413.438 12.935 414.773 13.67 415.943 14.6C417.113 15.5 418.088 16.49 418.868 17.57C419.678 18.62 420.293 19.67 420.713 20.72C421.133 21.77 421.343 22.7 421.343 23.51C421.343 24.62 421.013 25.85 420.353 27.2C419.723 28.55 418.793 29.84 417.563 31.07C416.333 32.3 414.818 33.32 413.018 34.13C411.248 34.91 409.238 35.3 406.988 35.3ZM410.093 29.045C411.863 29.045 413.438 28.58 414.818 27.65C416.198 26.72 417.368 25.31 418.328 23.42C417.338 21.5 416.153 20.09 414.773 19.19C413.393 18.26 411.833 17.795 410.093 17.795C408.773 17.795 407.618 18.02 406.628 18.47C405.668 18.92 404.933 19.58 404.423 20.45C403.913 21.29 403.658 22.28 403.658 23.42C403.658 24.53 403.913 25.52 404.423 26.39C404.933 27.23 405.668 27.89 406.628 28.37C407.588 28.82 408.743 29.045 410.093 29.045Z"/>
</mask>
<path d="M45.405 34.04V36.54H48.8653L47.7785 33.2548L45.405 34.04ZM42.48 34.04L40.0741 33.3604L39.176 36.54H42.48V34.04ZM50.895 4.25V1.75H49.0034L48.4891 3.5704L50.895 4.25ZM60.75 4.25L63.1419 4.97714L64.123 1.75H60.75V4.25ZM50.49 38V40.5H52.343L52.8819 38.7271L50.49 38ZM38.475 38L36.1074 38.8028L36.6829 40.5H38.475V38ZM28.71 9.2V6.7H25.2225L26.3424 10.0028L28.71 9.2ZM32.535 9.2L34.9015 10.0061L36.0276 6.7H32.535V9.2ZM22.725 38V40.5H24.5145L25.0915 38.8061L22.725 38ZM10.755 38L8.36397 38.7301L8.90439 40.5H10.755V38ZM0.45 4.25V1.75H-2.92727L-1.94103 4.98006L0.45 4.25ZM10.35 4.25L12.7559 3.5704L12.2416 1.75H10.35V4.25ZM18.765 34.04L18.7259 36.5397L22.0838 36.5922L21.1709 33.3604L18.765 34.04ZM15.885 33.995L13.5108 33.212L12.4457 36.4416L15.8459 36.4947L15.885 33.995ZM25.695 4.25V1.75H23.8871L23.3208 3.46697L25.695 4.25ZM35.55 4.25L37.9235 3.46481L37.3562 1.75H35.55V4.25ZM45.405 31.54H42.48V36.54H45.405V31.54ZM44.8859 34.7196L53.3009 4.9296L48.4891 3.5704L40.0741 33.3604L44.8859 34.7196ZM50.895 6.75H60.75V1.75H50.895V6.75ZM58.3581 3.52286L48.0981 37.2729L52.8819 38.7271L63.1419 4.97714L58.3581 3.52286ZM50.49 35.5H38.475V40.5H50.49V35.5ZM40.8426 37.1972L31.0776 8.39723L26.3424 10.0028L36.1074 38.8028L40.8426 37.1972ZM28.71 11.7H32.535V6.7H28.71V11.7ZM30.1685 8.39392L20.3585 37.1939L25.0915 38.8061L34.9015 10.0061L30.1685 8.39392ZM22.725 35.5H10.755V40.5H22.725V35.5ZM13.146 37.2699L2.84103 3.51994L-1.94103 4.98006L8.36397 38.7301L13.146 37.2699ZM0.45 6.75H10.35V1.75H0.45V6.75ZM7.94414 4.9296L16.3591 34.7196L21.1709 33.3604L12.7559 3.5704L7.94414 4.9296ZM18.8041 31.5403L15.9241 31.4953L15.8459 36.4947L18.7259 36.5397L18.8041 31.5403ZM18.2592 34.778L28.0692 5.03302L23.3208 3.46697L13.5108 33.212L18.2592 34.778ZM25.695 6.75H35.55V1.75H25.695V6.75ZM33.1765 5.03519L43.0315 34.8252L47.7785 33.2548L37.9235 3.46481L33.1765 5.03519ZM70.7783 37.01L69.7165 39.2733L69.7272 39.2783L70.7783 37.01ZM65.0183 32.24L62.9521 33.6474L62.9569 33.6544L62.9618 33.6615L65.0183 32.24ZM64.9283 18.02L67.0037 19.4139L67.0084 19.4068L67.0132 19.3997L64.9283 18.02ZM70.4633 13.25L69.3796 10.9971L69.3684 11.0025L70.4633 13.25ZM86.3483 13.565L85.0233 15.685L85.0405 15.6957L85.0578 15.7061L86.3483 13.565ZM91.3883 19.19L89.1358 20.2745L89.1412 20.2858L89.1467 20.2969L91.3883 19.19ZM93.1883 27.785V30.285H95.6883V27.785H93.1883ZM70.3283 27.785H67.8283V30.285H70.3283V27.785ZM70.3283 22.25V19.75H67.8283V22.25H70.3283ZM88.0133 22.25L89.3636 24.354L96.5372 19.75H88.0133V22.25ZM84.9983 24.185L82.5086 24.4113L82.8816 28.5141L86.3486 26.289L84.9983 24.185ZM84.0083 20.855L81.8463 22.1103L81.8554 22.1259L81.8646 22.1412L84.0083 20.855ZM81.8483 18.74L80.6406 20.9289L80.6562 20.9375L80.6719 20.9459L81.8483 18.74ZM72.9833 21.08L75.1453 22.3353L75.1539 22.3206L75.1623 22.3057L72.9833 21.08ZM73.2533 28.505L71.1396 29.84L71.1602 29.8726L71.1819 29.9046L73.2533 28.505ZM76.4933 31.07L75.5144 33.3704L75.5231 33.3741L75.5318 33.3777L76.4933 31.07ZM87.3833 31.25L88.008 33.6707L88.0213 33.6673L88.0346 33.6637L87.3833 31.25ZM92.5133 29.135H95.0133V24.764L91.2458 26.9802L92.5133 29.135ZM92.5133 34.985L93.9162 37.0543L95.0133 36.3105V34.985H92.5133ZM86.4383 37.775L87.1124 40.1824L87.1229 40.1795L87.1335 40.1764L86.4383 37.775ZM79.1483 36.22C76.3368 36.22 73.9139 35.7077 71.8295 34.7417L69.7272 39.2783C72.5627 40.5923 75.7198 41.22 79.1483 41.22V36.22ZM71.8401 34.7467C69.7763 33.7785 68.213 32.4652 67.0749 30.8185L62.9618 33.6615C64.6436 36.0948 66.9204 37.9615 69.7165 39.2733L71.8401 34.7467ZM67.0845 30.8326C65.9827 29.215 65.4033 27.3152 65.4033 25.04H60.4033C60.4033 28.2248 61.234 31.125 62.9521 33.6474L67.0845 30.8326ZM65.4033 25.04C65.4033 22.8134 65.9587 20.9697 67.0037 19.4139L62.853 16.6261C61.1979 19.0903 60.4033 21.9266 60.4033 25.04H65.4033ZM67.0132 19.3997C68.1007 17.7562 69.5931 16.4549 71.5582 15.4975L69.3684 11.0025C66.6535 12.3251 64.4559 14.2038 62.8435 16.6403L67.0132 19.3997ZM71.547 15.5029C73.5375 14.5454 75.8297 14.04 78.4733 14.04V9.04C75.1769 9.04 72.1291 9.67455 69.3796 10.9971L71.547 15.5029ZM78.4733 14.04C81.1951 14.04 83.3379 14.6316 85.0233 15.685L87.6733 11.445C85.0387 9.79838 81.9315 9.04 78.4733 9.04V14.04ZM85.0578 15.7061C86.8078 16.761 88.1647 18.2576 89.1358 20.2745L93.6408 18.1055C92.2719 15.2624 90.2688 13.009 87.6389 11.4239L85.0578 15.7061ZM89.1467 20.2969C90.1437 22.3159 90.6883 24.7867 90.6883 27.785H95.6883C95.6883 24.1833 95.0329 20.9241 93.6299 18.083L89.1467 20.2969ZM93.1883 25.285H70.3283V30.285H93.1883V25.285ZM72.8283 27.785V22.25H67.8283V27.785H72.8283ZM70.3283 24.75H88.0133V19.75H70.3283V24.75ZM86.663 20.146L83.648 22.081L86.3486 26.289L89.3636 24.354L86.663 20.146ZM87.4881 23.9587C87.3427 22.3595 86.9297 20.8649 86.1521 19.5688L81.8646 22.1412C82.1669 22.6451 82.414 23.3705 82.5086 24.4113L87.4881 23.9587ZM86.1703 19.5997C85.4099 18.2901 84.3581 17.2452 83.0248 16.5341L80.6719 20.9459C81.1386 21.1948 81.5267 21.5599 81.8463 22.1103L86.1703 19.5997ZM83.056 16.5511C81.7381 15.8239 80.2515 15.52 78.6983 15.52V20.52C79.6052 20.52 80.2186 20.6961 80.6406 20.9289L83.056 16.5511ZM78.6983 15.52C77.0151 15.52 75.4176 15.858 74.0077 16.6511L76.459 21.0089C76.9691 20.722 77.6815 20.52 78.6983 20.52V15.52ZM74.0077 16.6511C72.6486 17.4155 71.5689 18.4953 70.8044 19.8543L75.1623 22.3057C75.4778 21.7447 75.898 21.3245 76.459 21.0089L74.0077 16.6511ZM70.8213 19.8247C70.0245 21.197 69.6733 22.7404 69.6733 24.365H74.6733C74.6733 23.4696 74.8621 22.823 75.1453 22.3353L70.8213 19.8247ZM69.6733 24.365C69.6733 26.3615 70.1204 28.2263 71.1396 29.84L75.367 27.17C74.9462 26.5037 74.6733 25.6085 74.6733 24.365H69.6733ZM71.1819 29.9046C72.2389 31.4691 73.7265 32.6096 75.5144 33.3704L77.4722 28.7696C76.4401 28.3304 75.7678 27.7609 75.3248 27.1054L71.1819 29.9046ZM75.5318 33.3777C77.3584 34.1388 79.4604 34.47 81.7583 34.47V29.47C79.9162 29.47 78.5082 29.2012 77.4549 28.7623L75.5318 33.3777ZM81.7583 34.47C83.8625 34.47 85.9473 34.2025 88.008 33.6707L86.7586 28.8293C85.0993 29.2575 83.4341 29.47 81.7583 29.47V34.47ZM88.0346 33.6637C90.1188 33.1013 92.0393 32.3143 93.7809 31.2898L91.2458 26.9802C89.9273 27.7557 88.4279 28.3787 86.732 28.8363L88.0346 33.6637ZM90.0133 29.135V34.985H95.0133V29.135H90.0133ZM91.1104 32.9157C89.5799 33.9534 87.7987 34.7786 85.7432 35.3736L87.1335 40.1764C89.6379 39.4514 91.9067 38.4166 93.9162 37.0543L91.1104 32.9157ZM85.7642 35.3676C83.7576 35.9295 81.5567 36.22 79.1483 36.22V41.22C81.9599 41.22 84.6191 40.8805 87.1124 40.1824L85.7642 35.3676ZM100.27 3.35V0.849998H97.7702V3.35H100.27ZM109.495 3.35H111.995V0.849998H109.495V3.35ZM109.495 19.775L111.714 20.927L111.995 20.3854V19.775H109.495ZM108.28 22.115L106.061 20.963L105.78 21.5046V22.115H108.28ZM108.28 28.595H105.78V29.2269L106.08 29.7829L108.28 28.595ZM109.495 30.845H111.995V30.2131L111.695 29.6571L109.495 30.845ZM109.495 38V40.5H111.995V38H109.495ZM100.27 38H97.7702V40.5H100.27V38ZM106.525 25.175L104.053 24.8028L103.996 25.1812L104.055 25.5593L106.525 25.175ZM109 17.975L111.133 19.2799L111.137 19.2729L111.141 19.2659L109 17.975ZM113.725 13.25L114.976 15.4144L114.987 15.4082L113.725 13.25ZM126.865 13.25L125.574 15.3907L125.581 15.3952L125.589 15.3996L126.865 13.25ZM131.32 18.02L129.097 19.1641L129.104 19.177L129.111 19.1897L131.32 18.02ZM131.32 32.285L129.104 31.1286L129.097 31.1409L131.32 32.285ZM126.865 37.055L128.131 39.2107L128.142 39.2046L126.865 37.055ZM113.725 37.055L112.449 39.2046L112.461 39.2121L112.474 39.2193L113.725 37.055ZM109 32.285L106.859 33.5759L106.859 33.5759L109 32.285ZM122.86 21.755L120.638 22.8999L120.651 22.9262L120.665 22.9521L122.86 21.755ZM120.7 19.415L122.007 17.2835L122.007 17.2835L120.7 19.415ZM111.025 21.755L109.119 20.1376L109.119 20.1376L111.025 21.755ZM109.09 25.175L106.73 24.3516L106.439 25.1848L106.736 26.0158L109.09 25.175ZM113.95 30.89L112.808 33.1139L112.832 33.1263L112.857 33.1381L113.95 30.89ZM120.7 30.89L121.956 33.052L121.981 33.037L122.007 33.0215L120.7 30.89ZM122.86 28.55L120.665 27.3529L120.651 27.3788L120.638 27.4051L122.86 28.55ZM100.27 5.85H109.495V0.849998H100.27V5.85ZM106.995 3.35V19.775H111.995V3.35H106.995ZM107.276 18.623L106.061 20.963L110.499 23.267L111.714 20.927L107.276 18.623ZM105.78 22.115V28.595H110.78V22.115H105.78ZM106.08 29.7829L107.295 32.0329L111.695 29.6571L110.48 27.4071L106.08 29.7829ZM106.995 30.845V38H111.995V30.845H106.995ZM109.495 35.5H100.27V40.5H109.495V35.5ZM102.77 38V3.35H97.7702V38H102.77ZM108.997 25.5471C109.377 23.0237 110.108 20.9544 111.133 19.2799L106.868 16.6701C105.432 19.0156 104.513 21.7463 104.053 24.8028L108.997 25.5471ZM111.141 19.2659C112.17 17.5599 113.449 16.2974 114.976 15.4143L112.474 11.0857C110.161 12.4226 108.291 14.3101 106.859 16.6841L111.141 19.2659ZM114.987 15.4082C116.53 14.5061 118.265 14.04 120.25 14.04V9.04C117.436 9.04 114.82 9.71386 112.463 11.0918L114.987 15.4082ZM120.25 14.04C122.381 14.04 124.126 14.5176 125.574 15.3907L128.156 11.1093C125.824 9.70241 123.159 9.04 120.25 9.04V14.04ZM125.589 15.3996C127.094 16.2931 128.256 17.5294 129.097 19.1641L133.543 16.8759C132.284 14.4306 130.477 12.4869 128.142 11.1004L125.589 15.3996ZM129.111 19.1897C129.968 20.8089 130.44 22.7784 130.44 25.175H135.44C135.44 22.1116 134.832 19.3111 133.53 16.8503L129.111 19.1897ZM130.44 25.175C130.44 27.5006 129.972 29.4639 129.104 31.1286L133.537 33.4414C134.828 30.9661 135.44 28.1894 135.44 25.175H130.44ZM129.097 31.1409C128.256 32.7756 127.094 34.0119 125.589 34.9054L128.142 39.2046C130.477 37.8181 132.284 35.8744 133.543 33.4291L129.097 31.1409ZM125.599 34.8993C124.147 35.7519 122.393 36.22 120.25 36.22V41.22C123.148 41.22 125.803 40.5781 128.131 39.2107L125.599 34.8993ZM120.25 36.22C118.216 36.22 116.48 35.7601 114.976 34.8907L112.474 39.2193C114.81 40.5699 117.424 41.22 120.25 41.22V36.22ZM115.002 34.9054C113.46 33.9899 112.173 32.7052 111.141 30.9941L106.859 33.5759C108.288 35.9448 110.151 37.8401 112.449 39.2046L115.002 34.9054ZM111.141 30.9941C110.102 29.2699 109.373 27.2168 108.995 24.7907L104.055 25.5593C104.518 28.5332 105.439 31.2201 106.859 33.5759L111.141 30.9941ZM126.17 25.175C126.17 23.5276 125.822 21.965 125.055 20.5579L120.665 22.9521C120.978 23.525 121.17 24.2424 121.17 25.175H126.17ZM125.083 20.6101C124.368 19.2226 123.335 18.0976 122.007 17.2835L119.394 21.5465C119.925 21.8724 120.333 22.3074 120.638 22.8999L125.083 20.6101ZM122.007 17.2835C120.635 16.4428 119.091 16.06 117.46 16.06V21.06C118.289 21.06 118.905 21.2472 119.394 21.5465L122.007 17.2835ZM117.46 16.06C115.827 16.06 114.266 16.4424 112.808 17.1911L115.092 21.6389C115.854 21.2476 116.633 21.06 117.46 21.06V16.06ZM112.808 17.1911C111.394 17.9172 110.163 18.9075 109.119 20.1376L112.931 23.3724C113.568 22.6225 114.286 22.0528 115.092 21.6389L112.808 17.1911ZM109.119 20.1376C108.07 21.3741 107.276 22.7866 106.73 24.3516L111.451 25.9984C111.805 24.9834 112.301 24.1159 112.931 23.3724L109.119 20.1376ZM106.736 26.0158C107.284 27.5508 108.078 28.9407 109.119 30.1674L112.931 26.9326C112.292 26.1793 111.796 25.3192 111.445 24.3342L106.736 26.0158ZM109.119 30.1674C110.163 31.3975 111.394 32.3878 112.808 33.1139L115.092 28.6661C114.286 28.2522 113.568 27.6825 112.931 26.9326L109.119 30.1674ZM112.857 33.1381C114.306 33.8432 115.85 34.2 117.46 34.2V29.2C116.611 29.2 115.814 29.0168 115.044 28.6419L112.857 33.1381ZM117.46 34.2C119.067 34.2 120.592 33.8436 121.956 33.052L119.445 28.728C118.948 29.0164 118.314 29.2 117.46 29.2V34.2ZM122.007 33.0215C123.335 32.2074 124.368 31.0824 125.083 29.6949L120.638 27.4051C120.333 27.9976 119.925 28.4326 119.394 28.7585L122.007 33.0215ZM125.055 29.7471C125.818 28.3484 126.17 26.8034 126.17 25.175H121.17C121.17 26.0666 120.983 26.7716 120.665 27.3529L125.055 29.7471ZM139.666 15.14L137.174 14.9295L136.945 17.64H139.666V15.14ZM141.961 9.335L143.936 10.8675L143.942 10.8593L143.948 10.8511L141.961 9.335ZM147.811 5.105L148.762 7.4167L148.762 7.41669L147.811 5.105ZM165.271 4.7L164.471 7.06863L164.48 7.07171L165.271 4.7ZM170.671 7.985L168.806 9.65083L168.816 9.66174L168.826 9.67253L170.671 7.985ZM171.211 17.12L169.199 15.6354L169.188 15.651L169.176 15.6669L171.211 17.12ZM166.891 20.135L167.757 22.4802L167.766 22.4766L167.776 22.4729L166.891 20.135ZM159.241 21.17H156.741V23.6463L159.217 23.6699L159.241 21.17ZM159.241 20.225L159.139 17.7271L156.741 17.825V20.225H159.241ZM171.616 23.51L169.76 25.1849L169.771 25.1972L169.782 25.2094L171.616 23.51ZM171.346 33.635L173.269 35.2319L173.269 35.2319L171.346 33.635ZM165.586 37.37L164.745 35.0156L164.736 35.0189L165.586 37.37ZM147.226 37.28L146.363 39.6263L146.363 39.6263L147.226 37.28ZM141.106 33.185L139.153 34.7467L139.168 34.7646L139.182 34.7823L141.106 33.185ZM138.811 26.885V24.385H136.215L136.312 26.9787L138.811 26.885ZM148.081 26.885L150.549 26.49L150.212 24.385H148.081V26.885ZM150.421 30.35L149.113 32.4808L149.124 32.4873L149.134 32.4937L150.421 30.35ZM161.896 30.485L160.677 28.302L160.666 28.3081L160.655 28.3144L161.896 30.485ZM163.201 25.58L161.215 27.0986L161.242 27.1345L161.271 27.1693L163.201 25.58ZM161.086 24.455L160.446 26.8718L160.479 26.8806L160.513 26.8885L161.086 24.455ZM151.006 24.05H148.506V26.55H151.006V24.05ZM151.006 17.75V15.25H148.506V17.75H151.006ZM161.761 16.805L160.389 14.7149L160.374 14.7249L160.358 14.7352L161.761 16.805ZM161.536 11.63L160.276 13.7894L160.289 13.7969L160.302 13.8042L161.536 11.63ZM148.981 15.14V17.64H151.091L151.445 15.5595L148.981 15.14ZM142.157 15.3505C142.295 13.7169 142.872 12.2381 143.936 10.8675L139.985 7.80251C138.349 9.91187 137.396 12.3031 137.174 14.9295L142.157 15.3505ZM143.948 10.8511C144.972 9.50844 146.525 8.33796 148.762 7.4167L146.859 2.7933C143.996 3.97204 141.649 5.62156 139.973 7.81888L143.948 10.8511ZM148.762 7.41669C150.929 6.52447 153.691 6.03 157.126 6.03V1.03C153.24 1.03 149.792 1.58553 146.859 2.7933L148.762 7.41669ZM157.126 6.03C160.046 6.03 162.479 6.39606 164.471 7.06861L166.07 2.33139C163.442 1.44394 160.445 1.03 157.126 1.03V6.03ZM164.48 7.07171C166.529 7.75478 167.912 8.64995 168.806 9.65083L172.535 6.31917C170.909 4.50005 168.692 3.20522 166.061 2.32829L164.48 7.07171ZM168.826 9.67253C169.692 10.6193 170.106 11.6814 170.106 12.98H175.106C175.106 10.4386 174.229 8.17072 172.515 6.29747L168.826 9.67253ZM170.106 12.98C170.106 13.921 169.827 14.7851 169.199 15.6354L173.222 18.6046C174.454 16.9349 175.106 15.039 175.106 12.98H170.106ZM169.176 15.6669C168.651 16.4021 167.688 17.1596 166.005 17.7971L167.776 22.4729C170.053 21.6104 171.97 20.3578 173.245 18.5731L169.176 15.6669ZM166.025 17.7898C164.467 18.365 162.251 18.6986 159.264 18.6701L159.217 23.6699C162.53 23.7014 165.414 23.345 167.757 22.4802L166.025 17.7898ZM161.741 21.17V20.225H156.741V21.17H161.741ZM159.343 22.7229C162.119 22.6096 164.382 22.8143 166.178 23.2762L167.423 18.4338C165.019 17.8157 162.242 17.6004 159.139 17.7271L159.343 22.7229ZM166.178 23.2762C167.947 23.7312 169.066 24.4164 169.76 25.1849L173.472 21.8351C171.945 20.1436 169.854 19.0588 167.423 18.4338L166.178 23.2762ZM169.782 25.2094C170.438 25.9176 170.826 26.8439 170.826 28.19H175.826C175.826 25.7561 175.073 23.5624 173.449 21.8106L169.782 25.2094ZM170.826 28.19C170.826 29.6385 170.375 30.8905 169.422 32.0381L173.269 35.2319C174.956 33.1995 175.826 30.8215 175.826 28.19H170.826ZM169.422 32.0381C168.461 33.1955 166.964 34.2229 164.745 35.0156L166.426 39.7244C169.247 38.7171 171.59 37.2545 173.269 35.2319L169.422 32.0381ZM164.736 35.0189C162.599 35.7913 159.846 36.22 156.406 36.22V41.22C160.225 41.22 163.593 40.7487 166.435 39.7211L164.736 35.0189ZM156.406 36.22C153.116 36.22 150.36 35.7693 148.089 34.9337L146.363 39.6263C149.311 40.7107 152.675 41.22 156.406 41.22V36.22ZM148.089 34.9337C145.806 34.094 144.164 32.9548 143.029 31.5877L139.182 34.7823C140.987 36.9552 143.426 38.546 146.363 39.6263L148.089 34.9337ZM143.058 31.6233C141.967 30.2598 141.38 28.6801 141.309 26.7913L136.312 26.9787C136.422 29.8899 137.364 32.5102 139.153 34.7467L143.058 31.6233ZM138.811 29.385H148.081V24.385H138.811V29.385ZM145.612 27.28C145.97 29.5163 147.185 31.2979 149.113 32.4808L151.728 28.2192C151.016 27.7821 150.671 27.2537 150.549 26.49L145.612 27.28ZM149.134 32.4937C151.054 33.6455 153.585 34.065 156.406 34.065V29.065C153.947 29.065 152.487 28.6745 151.707 28.2063L149.134 32.4937ZM156.406 34.065C158.988 34.065 161.327 33.6894 163.136 32.6556L160.655 28.3144C159.944 28.7206 158.623 29.065 156.406 29.065V34.065ZM163.114 32.668C165.057 31.5837 166.331 29.8145 166.331 27.47H161.331C161.331 27.7055 161.314 27.9463 160.677 28.302L163.114 32.668ZM166.331 27.47C166.331 26.2231 165.969 25.0085 165.13 23.9907L161.271 27.1693C161.285 27.1862 161.293 27.2001 161.301 27.2256C161.311 27.255 161.331 27.3294 161.331 27.47H166.331ZM165.186 24.0614C164.283 22.8804 162.911 22.3162 161.658 22.0215L160.513 26.8885C160.875 26.9737 161.091 27.0627 161.205 27.1234C161.316 27.1823 161.284 27.1894 161.215 27.0986L165.186 24.0614ZM161.725 22.0382C160.398 21.687 158.723 21.55 156.811 21.55V26.55C158.558 26.55 159.733 26.683 160.446 26.8718L161.725 22.0382ZM156.811 21.55H151.006V26.55H156.811V21.55ZM153.506 24.05V17.75H148.506V24.05H153.506ZM151.006 20.25H156.811V15.25H151.006V20.25ZM156.811 20.25C159.233 20.25 161.561 19.9601 163.163 18.8748L160.358 14.7352C160.101 14.9099 159.128 15.25 156.811 15.25V20.25ZM163.132 18.8951C164.718 17.8542 165.701 16.2666 165.701 14.285H160.701C160.701 14.4132 160.676 14.4518 160.67 14.4622C160.659 14.4815 160.601 14.576 160.389 14.7149L163.132 18.8951ZM165.701 14.285C165.701 12.1222 164.549 10.4656 162.77 9.45578L160.302 13.8042C160.575 13.9597 160.653 14.0725 160.666 14.0945C160.675 14.1077 160.68 14.1199 160.685 14.1386C160.691 14.1588 160.701 14.2042 160.701 14.285H165.701ZM162.795 9.47055C161.143 8.50687 158.974 8.185 156.631 8.185V13.185C158.667 13.185 159.768 13.4931 160.276 13.7894L162.795 9.47055ZM156.631 8.185C154.071 8.185 151.737 8.6014 149.915 9.72934L152.546 13.9807C153.244 13.5486 154.51 13.185 156.631 13.185V8.185ZM149.915 9.72934C148.07 10.8714 146.881 12.5747 146.516 14.7205L151.445 15.5595C151.56 14.8853 151.871 14.3986 152.546 13.9807L149.915 9.72934ZM148.981 12.64H139.666V17.64H148.981V12.64ZM230.472 23.375L232.969 23.4852L233.079 20.9897L230.584 20.8775L230.472 23.375ZM229.212 29.225L226.893 28.2901L226.889 28.2999L226.885 28.3097L229.212 29.225ZM226.017 34.13L224.23 32.3809L224.221 32.3905L224.212 32.4002L226.017 34.13ZM220.797 37.505L219.897 35.1725L219.886 35.1769L220.797 37.505ZM206.127 37.595L205.327 39.9636L205.341 39.9683L205.355 39.9728L206.127 37.595ZM200.007 34.175L198.374 36.0685L198.382 36.0754L198.39 36.0822L200.007 34.175ZM195.912 28.64L193.622 29.6437L193.628 29.6568L193.634 29.6698L195.912 28.64ZM195.957 13.61L193.679 12.5802L193.679 12.5802L195.957 13.61ZM200.097 8.075L198.496 6.15445L198.488 6.16107L198.48 6.16776L200.097 8.075ZM206.307 4.7L207.07 7.08071L207.079 7.07774L207.088 7.0747L206.307 4.7ZM223.677 5.24L224.649 2.93687L224.649 2.93687L223.677 5.24ZM230.202 9.92L228.281 11.5205L228.281 11.5205L230.202 9.92ZM233.397 16.805V19.305H236.398L235.855 16.3528L233.397 16.805ZM223.992 16.805L221.574 17.4412L222.064 19.305H223.992V16.805ZM222.147 13.88L220.441 15.7076L220.472 15.737L220.505 15.7652L222.147 13.88ZM218.727 11.99L217.936 14.3617L217.967 14.3721L217.999 14.3817L218.727 11.99ZM208.647 12.44L209.711 14.702L209.729 14.6936L209.747 14.6848L208.647 12.44ZM205.092 15.725L207.251 16.9847L207.257 16.975L207.262 16.9653L205.092 15.725ZM205.182 26.66L207.325 25.3738L207.325 25.3738L205.182 26.66ZM209.007 30.035L207.972 32.3109L207.98 32.3144L207.988 32.3178L209.007 30.035ZM220.707 30.26L221.548 32.6144L221.566 32.6077L221.585 32.6008L220.707 30.26ZM224.712 27.515L222.807 25.8959L222.795 25.9099L222.783 25.924L224.712 27.515ZM226.467 23.195L226.579 20.6975L224.189 20.5901L223.977 22.9727L226.467 23.195ZM215.802 27.11H213.302V29.61H215.802V27.11ZM215.802 20.54V18.04H213.302V20.54H215.802ZM233.712 20.54H236.212V18.04H233.712V20.54ZM233.712 38V40.5H236.212V38H233.712ZM227.097 38L224.609 38.243L224.829 40.5H227.097V38ZM225.792 24.635L227.831 23.1889L222.389 15.5147L223.304 24.878L225.792 24.635ZM227.547 27.11V29.61H232.384L229.586 25.6639L227.547 27.11ZM227.974 23.2648C227.896 25.027 227.535 26.6977 226.893 28.2901L231.53 30.1599C232.388 28.0323 232.867 25.803 232.969 23.4852L227.974 23.2648ZM226.885 28.3097C226.291 29.8206 225.412 31.1738 224.23 32.3809L227.803 35.8791C229.441 34.2062 230.693 32.2894 231.538 30.1403L226.885 28.3097ZM224.212 32.4002C223.116 33.5432 221.699 34.4775 219.897 35.1725L221.696 39.8375C224.095 38.9125 226.157 37.5968 227.822 35.8598L224.212 32.4002ZM219.886 35.1769C218.167 35.8495 216.073 36.22 213.552 36.22V41.22C216.551 41.22 219.287 40.7805 221.708 39.8331L219.886 35.1769ZM213.552 36.22C211.151 36.22 208.939 35.8795 206.899 35.2172L205.355 39.9728C207.935 40.8105 210.672 41.22 213.552 41.22V36.22ZM206.927 35.2264C204.9 34.5421 203.14 33.5536 201.623 32.2678L198.39 36.0822C200.413 37.7964 202.734 39.0879 205.327 39.9636L206.927 35.2264ZM201.639 32.2815C200.187 31.03 199.037 29.4844 198.19 27.6102L193.634 29.6698C194.766 32.1756 196.346 34.32 198.374 36.0685L201.639 32.2815ZM198.201 27.6363C197.403 25.8143 196.972 23.6606 196.972 21.125H191.972C191.972 24.2294 192.501 27.0857 193.622 29.6437L198.201 27.6363ZM196.972 21.125C196.972 18.5992 197.414 16.4549 198.235 14.6398L193.679 12.5802C192.519 15.1451 191.972 18.0108 191.972 21.125H196.972ZM198.235 14.6398C199.078 12.7753 200.236 11.2338 201.713 9.98224L198.48 6.16776C196.417 7.91623 194.816 10.0647 193.679 12.5802L198.235 14.6398ZM201.697 9.99555C203.238 8.7113 205.021 7.73744 207.07 7.08071L205.544 2.31929C202.913 3.16255 200.555 4.4387 198.496 6.15445L201.697 9.99555ZM207.088 7.0747C209.178 6.38688 211.491 6.03 214.047 6.03V1.03C211.022 1.03 208.175 1.45312 205.525 2.3253L207.088 7.0747ZM214.047 6.03C217.519 6.03 220.383 6.56294 222.704 7.54312L224.649 2.93687C221.571 1.63705 218.014 1.03 214.047 1.03V6.03ZM222.704 7.54312C225.088 8.54938 226.92 9.88673 228.281 11.5205L232.122 8.31954C230.184 5.99327 227.666 4.21062 224.649 2.93687L222.704 7.54312ZM228.281 11.5205C229.648 13.1603 230.533 15.0568 230.938 17.2572L235.855 16.3528C235.3 13.3332 234.056 10.6397 232.122 8.31954L228.281 11.5205ZM233.397 14.305H223.992V19.305H233.397V14.305ZM226.409 16.1688C225.976 14.5209 225.078 13.1179 223.789 11.9948L220.505 15.7652C221.075 16.2621 221.408 16.8091 221.574 17.4412L226.409 16.1688ZM223.853 12.0524C222.63 10.9112 221.137 10.1103 219.455 9.59831L217.999 14.3817C219.076 14.7097 219.864 15.1688 220.441 15.7076L223.853 12.0524ZM219.517 9.61829C217.863 9.06682 216.043 8.815 214.092 8.815V13.815C215.621 13.815 216.891 14.0132 217.936 14.3617L219.517 9.61829ZM214.092 8.815C211.697 8.815 209.489 9.24283 207.546 10.1952L209.747 14.6848C210.864 14.1372 212.286 13.815 214.092 13.815V8.815ZM207.582 10.178C205.587 11.117 204.016 12.5691 202.921 14.4847L207.262 16.9653C207.848 15.9409 208.647 15.203 209.711 14.702L207.582 10.178ZM202.932 14.4653C201.813 16.3848 201.332 18.6503 201.332 21.125H206.332C206.332 19.2797 206.691 17.9452 207.251 16.9847L202.932 14.4653ZM201.332 21.125C201.332 23.655 201.853 25.971 203.038 27.9462L207.325 25.3738C206.711 24.349 206.332 22.975 206.332 21.125H201.332ZM203.038 27.9462C204.209 29.8974 205.878 31.3592 207.972 32.3109L210.041 27.7591C208.835 27.2108 207.955 26.4226 207.325 25.3738L203.038 27.9462ZM207.988 32.3178C210.051 33.2392 212.377 33.66 214.902 33.66V28.66C212.926 28.66 211.322 28.3308 210.026 27.7522L207.988 32.3178ZM214.902 33.66C217.315 33.66 219.544 33.3298 221.548 32.6144L219.866 27.9056C218.509 28.3902 216.868 28.66 214.902 28.66V33.66ZM221.585 32.6008C223.611 31.841 225.331 30.6924 226.64 29.106L222.783 25.924C222.112 26.7376 221.163 27.419 219.829 27.9192L221.585 32.6008ZM226.617 29.1341C227.996 27.5117 228.764 25.5737 228.957 23.4173L223.977 22.9727C223.869 24.1763 223.468 25.1183 222.807 25.8959L226.617 29.1341ZM226.354 25.6925L230.359 25.8725L230.584 20.8775L226.579 20.6975L226.354 25.6925ZM218.302 27.11V20.54H213.302V27.11H218.302ZM215.802 23.04H233.712V18.04H215.802V23.04ZM231.212 20.54V38H236.212V20.54H231.212ZM233.712 35.5H227.097V40.5H233.712V35.5ZM229.585 37.757L228.28 24.392L223.304 24.878L224.609 38.243L229.585 37.757ZM223.752 26.0811L225.507 28.5561L229.586 25.6639L227.831 23.1889L223.752 26.0811ZM227.547 24.61H215.802V29.61H227.547V24.61ZM264.85 38L262.37 38.3131L262.646 40.5H264.85V38ZM263.68 28.73L261.314 27.9215L261.127 28.469L261.2 29.043L263.68 28.73ZM264.895 25.175L267.261 25.9835L267.537 25.175L267.261 24.3665L264.895 25.175ZM263.68 21.62L261.199 21.3084L261.127 21.8817L261.314 22.4285L263.68 21.62ZM264.85 12.305V9.805H262.644L262.369 11.9934L264.85 12.305ZM274.39 12.305L276.87 12.6183L277.226 9.805H274.39V12.305ZM272.77 25.13L270.29 24.8167L270.25 25.1295L270.29 25.4422L272.77 25.13ZM274.39 38V40.5H277.224L276.87 37.6878L274.39 38ZM267.01 25.175L269.48 25.5593L269.537 25.1945L269.486 24.8289L267.01 25.175ZM264.49 32.285L262.363 30.9713L262.356 30.9827L262.349 30.9941L264.49 32.285ZM259.765 37.055L261.031 39.2107L261.041 39.2046L259.765 37.055ZM246.625 37.055L245.334 39.1957L245.354 39.2077L245.374 39.2193L246.625 37.055ZM242.17 32.285L239.953 33.4414L239.957 33.4481L239.96 33.4547L242.17 32.285ZM242.17 18.02L239.96 16.8503L239.96 16.8503L242.17 18.02ZM246.625 13.25L245.349 11.1004L245.341 11.1048L245.334 11.1093L246.625 13.25ZM259.765 13.25L258.474 15.3907L258.494 15.4027L258.514 15.4143L259.765 13.25ZM264.535 17.975L262.408 19.2887L262.412 19.2958L262.417 19.3028L264.535 17.975ZM250.63 28.55L248.408 29.6949L248.421 29.7212L248.435 29.7471L250.63 28.55ZM252.835 30.89L251.529 33.0215L251.554 33.037L251.58 33.052L252.835 30.89ZM259.585 30.89L260.679 33.1381L260.703 33.1263L260.727 33.1139L259.585 30.89ZM262.51 28.55L264.416 30.1674L264.416 30.1674L262.51 28.55ZM264.4 25.175L266.772 25.9656L267.032 25.1842L266.777 24.401L264.4 25.175ZM262.51 21.755L264.416 20.1376L264.416 20.1376L262.51 21.755ZM252.835 19.415L251.529 17.2835L251.529 17.2835L252.835 19.415ZM250.63 21.755L248.435 20.5579L248.421 20.5838L248.408 20.6101L250.63 21.755ZM267.33 37.6869L266.16 28.4169L261.2 29.043L262.37 38.3131L267.33 37.6869ZM266.046 29.5385L267.261 25.9835L262.529 24.3665L261.314 27.9215L266.046 29.5385ZM267.261 24.3665L266.046 20.8115L261.314 22.4285L262.529 25.9835L267.261 24.3665ZM266.16 21.9316L267.33 12.6166L262.369 11.9934L261.199 21.3084L266.16 21.9316ZM264.85 14.805H274.39V9.805H264.85V14.805ZM271.91 11.9917L270.29 24.8167L275.25 25.4433L276.87 12.6183L271.91 11.9917ZM270.29 25.4422L271.91 38.3122L276.87 37.6878L275.25 24.8178L270.29 25.4422ZM274.39 35.5H264.85V40.5H274.39V35.5ZM264.54 24.7907C264.164 27.2069 263.425 29.252 262.363 30.9713L266.617 33.5987C268.075 31.238 269.016 28.5431 269.48 25.5593L264.54 24.7907ZM262.349 30.9941C261.317 32.7052 260.03 33.9899 258.489 34.9054L261.041 39.2046C263.34 37.8401 265.203 35.9448 266.631 33.5759L262.349 30.9941ZM258.499 34.8993C257.033 35.76 255.319 36.22 253.285 36.22V41.22C256.11 41.22 258.717 40.57 261.031 39.2107L258.499 34.8993ZM253.285 36.22C251.143 36.22 249.366 35.7522 247.876 34.8907L245.374 39.2193C247.724 40.5778 250.387 41.22 253.285 41.22V36.22ZM247.916 34.9143C246.433 34.0196 245.257 32.7735 244.379 31.1153L239.96 33.4547C241.243 35.8765 243.037 37.8104 245.334 39.1957L247.916 34.9143ZM244.386 31.1286C243.518 29.4639 243.05 27.5006 243.05 25.175H238.05C238.05 28.1894 238.662 30.9661 239.953 33.4414L244.386 31.1286ZM243.05 25.175C243.05 22.7784 243.522 20.8089 244.379 19.1897L239.96 16.8503C238.658 19.3111 238.05 22.1116 238.05 25.175H243.05ZM244.379 19.1897C245.257 17.5315 246.433 16.2854 247.916 15.3907L245.334 11.1093C243.037 12.4946 241.243 14.4285 239.96 16.8503L244.379 19.1897ZM247.901 15.3996C249.387 14.5173 251.155 14.04 253.285 14.04V9.04C250.375 9.04 247.703 9.70266 245.349 11.1004L247.901 15.3996ZM253.285 14.04C255.307 14.04 257.012 14.5091 258.474 15.3907L261.056 11.1093C258.738 9.71091 256.123 9.04 253.285 9.04V14.04ZM258.514 15.4143C260.047 16.301 261.347 17.571 262.408 19.2887L266.662 16.6613C265.203 14.299 263.323 12.419 261.016 11.0857L258.514 15.4143ZM262.417 19.3028C263.458 20.9638 264.184 23.0154 264.534 25.5211L269.486 24.8289C269.056 21.7546 268.132 19.0062 266.653 16.6472L262.417 19.3028ZM247.365 25.175C247.365 26.7804 247.692 28.3067 248.408 29.6949L252.852 27.4051C252.548 26.8133 252.365 26.0896 252.365 25.175H247.365ZM248.435 29.7471C249.177 31.1073 250.213 32.2151 251.529 33.0215L254.141 28.7585C253.597 28.4249 253.163 27.9727 252.825 27.3529L248.435 29.7471ZM251.58 33.052C252.934 33.8382 254.441 34.2 256.03 34.2V29.2C255.219 29.2 254.596 29.0218 254.09 28.728L251.58 33.052ZM256.03 34.2C257.661 34.2 259.221 33.8474 260.679 33.1381L258.491 28.6419C257.729 29.0126 256.919 29.2 256.03 29.2V34.2ZM260.727 33.1139C262.141 32.3878 263.373 31.3975 264.416 30.1674L260.604 26.9326C259.967 27.6825 259.249 28.2522 258.443 28.6661L260.727 33.1139ZM264.416 30.1674C265.468 28.9284 266.253 27.5213 266.772 25.9656L262.028 24.3844C261.707 25.3487 261.232 26.1916 260.604 26.9326L264.416 30.1674ZM266.777 24.401C266.261 22.8161 265.476 21.3865 264.416 20.1376L260.604 23.3724C261.224 24.1035 261.699 24.9539 262.023 25.949L266.777 24.401ZM264.416 20.1376C263.373 18.9075 262.141 17.9172 260.727 17.1911L258.443 21.6389C259.249 22.0528 259.967 22.6225 260.604 23.3724L264.416 20.1376ZM260.727 17.1911C259.26 16.4378 257.683 16.06 256.03 16.06V21.06C256.897 21.06 257.69 21.2522 258.443 21.6389L260.727 17.1911ZM256.03 16.06C254.417 16.06 252.89 16.4488 251.529 17.2835L254.141 21.5465C254.639 21.2412 255.243 21.06 256.03 21.06V16.06ZM251.529 17.2835C250.213 18.0899 249.177 19.1977 248.435 20.5579L252.825 22.9521C253.163 22.3323 253.597 21.8801 254.141 21.5465L251.529 17.2835ZM248.408 20.6101C247.688 22.0064 247.365 23.5499 247.365 25.175H252.365C252.365 24.2201 252.552 23.4836 252.852 22.8999L248.408 20.6101ZM280.743 12.305V9.805H277.714L278.288 12.7785L280.743 12.305ZM289.968 12.305L292.435 11.9045L292.095 9.805H289.968V12.305ZM291.633 22.565H294.133V22.3635L294.1 22.1645L291.633 22.565ZM291.633 38V40.5H294.133V38H291.633ZM282.453 38H279.953V40.5H282.453V38ZM282.453 21.17H284.953V20.9311L284.907 20.6965L282.453 21.17ZM306.528 13.025L307.814 10.8813L307.814 10.8813L306.528 13.025ZM310.308 17.21L312.559 16.1221L312.559 16.1221L310.308 17.21ZM311.613 38V40.5H314.113V38H311.613ZM302.433 38H299.933V40.5H302.433V38ZM294.288 19.82L292.969 17.6959L292.952 17.7063L292.936 17.7171L294.288 19.82ZM292.308 22.115L290.058 21.0243L290.045 21.0522L290.032 21.0805L292.308 22.115ZM291.633 25.625L290.473 27.8396L294.133 29.7567V25.625H291.633ZM288.798 24.14L286.319 23.8132L286.091 25.5443L287.638 26.3546L288.798 24.14ZM291.003 17.255L293.149 18.5361L293.154 18.5286L293.158 18.5211L291.003 17.255ZM295.098 12.98L293.84 10.8191L293.832 10.8242L293.823 10.8293L295.098 12.98ZM326.463 13.025L325.176 15.1687L325.185 15.1738L325.193 15.1788L326.463 13.025ZM330.288 17.21L328.037 18.2979L328.037 18.2979L330.288 17.21ZM331.593 38V40.5H334.093V38H331.593ZM322.413 38H319.913V40.5H322.413V38ZM321.108 20.54L323.01 18.9176L323.01 18.9176L321.108 20.54ZM314.268 19.82L312.949 17.6959L312.932 17.7063L312.916 17.7171L314.268 19.82ZM312.288 22.115L310.038 21.0243L310.025 21.0522L310.012 21.0805L312.288 22.115ZM311.613 25.625L310.453 27.8396L314.113 29.7567V25.625H311.613ZM308.778 24.14L306.299 23.8132L306.071 25.5443L307.618 26.3546L308.778 24.14ZM310.938 17.255L308.782 15.9889L308.776 15.9997L310.938 17.255ZM315.078 12.98L313.82 10.8191L313.82 10.8191L315.078 12.98ZM280.743 14.805H289.968V9.805H280.743V14.805ZM287.5 12.7055L289.165 22.9655L294.1 22.1645L292.435 11.9045L287.5 12.7055ZM289.133 22.565V38H294.133V22.565H289.133ZM291.633 35.5H282.453V40.5H291.633V35.5ZM284.953 38V21.17H279.953V38H284.953ZM284.907 20.6965L283.197 11.8315L278.288 12.7785L279.998 21.6435L284.907 20.6965ZM300.498 14.04C302.519 14.04 304.061 14.4603 305.241 15.1687L307.814 10.8813C305.695 9.60965 303.216 9.04 300.498 9.04V14.04ZM305.241 15.1687C306.457 15.8981 307.39 16.9182 308.057 18.2979L312.559 16.1221C311.485 13.9018 309.898 12.1319 307.814 10.8813L305.241 15.1687ZM308.057 18.2979C308.729 19.6896 309.113 21.4317 309.113 23.6H314.113C314.113 20.8483 313.626 18.3304 312.559 16.1221L308.057 18.2979ZM309.113 23.6V38H314.113V23.6H309.113ZM311.613 35.5H302.433V40.5H311.613V35.5ZM304.933 38V24.95H299.933V38H304.933ZM304.933 24.95C304.933 22.688 304.423 20.551 303.03 18.9176L299.226 22.1624C299.572 22.569 299.933 23.372 299.933 24.95H304.933ZM303.03 18.9176C301.577 17.2145 299.546 16.51 297.348 16.51V21.51C298.45 21.51 298.938 21.8255 299.226 22.1624L303.03 18.9176ZM297.348 16.51C295.78 16.51 294.289 16.8767 292.969 17.6959L295.606 21.9441C296.026 21.6833 296.576 21.51 297.348 21.51V16.51ZM292.936 17.7171C291.671 18.5304 290.718 19.6642 290.058 21.0243L294.557 23.2057C294.858 22.5858 295.225 22.1896 295.64 21.9229L292.936 17.7171ZM290.032 21.0805C289.403 22.4639 289.133 24.002 289.133 25.625H294.133C294.133 24.548 294.312 23.7461 294.584 23.1495L290.032 21.0805ZM292.793 23.4104L289.958 21.9254L287.638 26.3546L290.473 27.8396L292.793 23.4104ZM291.276 24.4668C291.603 21.9861 292.254 20.0362 293.149 18.5361L288.856 15.9739C287.531 18.1938 286.712 20.8339 286.319 23.8132L291.276 24.4668ZM293.158 18.5211C294.09 16.9355 295.172 15.8421 296.372 15.1307L293.823 10.8293C291.784 12.0379 290.136 13.7945 288.847 15.9889L293.158 18.5211ZM296.355 15.1409C297.615 14.4079 298.979 14.04 300.498 14.04V9.04C298.116 9.04 295.881 9.63206 293.84 10.8191L296.355 15.1409ZM320.433 14.04C322.454 14.04 323.996 14.4603 325.176 15.1687L327.749 10.8813C325.63 9.60965 323.151 9.04 320.433 9.04V14.04ZM325.193 15.1788C326.437 15.9116 327.376 16.9304 328.037 18.2979L332.539 16.1221C331.46 13.8896 329.848 12.1184 327.732 10.8712L325.193 15.1788ZM328.037 18.2979C328.709 19.6896 329.093 21.4317 329.093 23.6H334.093C334.093 20.8483 333.606 18.3304 332.539 16.1221L328.037 18.2979ZM329.093 23.6V38H334.093V23.6H329.093ZM331.593 35.5H322.413V40.5H331.593V35.5ZM324.913 38V24.95H319.913V38H324.913ZM324.913 24.95C324.913 22.688 324.403 20.551 323.01 18.9176L319.206 22.1624C319.552 22.569 319.913 23.372 319.913 24.95H324.913ZM323.01 18.9176C321.557 17.2145 319.526 16.51 317.328 16.51V21.51C318.43 21.51 318.918 21.8255 319.206 22.1624L323.01 18.9176ZM317.328 16.51C315.76 16.51 314.269 16.8767 312.949 17.6959L315.586 21.9441C316.006 21.6833 316.556 21.51 317.328 21.51V16.51ZM312.916 17.7171C311.651 18.5304 310.698 19.6642 310.038 21.0243L314.537 23.2057C314.838 22.5858 315.205 22.1896 315.62 21.9229L312.916 17.7171ZM310.012 21.0805C309.383 22.4639 309.113 24.002 309.113 25.625H314.113C314.113 24.548 314.292 23.7461 314.564 23.1495L310.012 21.0805ZM312.773 23.4104L309.938 21.9254L307.618 26.3546L310.453 27.8396L312.773 23.4104ZM311.256 24.4668C311.585 21.9763 312.225 20.0169 313.1 18.5103L308.776 15.9997C307.491 18.2131 306.691 20.8437 306.299 23.8132L311.256 24.4668ZM313.093 18.5211C314.018 16.946 315.108 15.8545 316.335 15.1409L313.82 10.8191C311.747 12.0255 310.077 13.784 308.782 15.9889L313.093 18.5211ZM316.335 15.1409C317.601 14.4043 318.952 14.04 320.433 14.04V9.04C318.074 9.04 315.855 9.63566 313.82 10.8191L316.335 15.1409ZM339.468 11.9L339.945 9.44584L336.968 8.86787V11.9H339.468ZM344.103 12.8L343.627 15.2542L344.105 15.3471L344.584 15.2533L344.103 12.8ZM348.693 11.9H351.193V8.8622L348.212 9.44671L348.693 11.9ZM348.693 38V40.5H351.193V38H348.693ZM339.468 38H336.968V40.5H339.468V38ZM340.188 8.615L338.605 10.5499L338.623 10.5645L338.641 10.5787L340.188 8.615ZM340.188 2.09L341.771 4.02489L341.771 4.02489L340.188 2.09ZM347.973 2.09L346.361 4.00073L346.375 4.01292L346.39 4.02489L347.973 2.09ZM347.973 8.615L349.55 10.5553L349.556 10.5499L347.973 8.615ZM338.992 14.3542L343.627 15.2542L344.58 10.3458L339.945 9.44584L338.992 14.3542ZM344.584 15.2533L349.174 14.3533L348.212 9.44671L343.622 10.3467L344.584 15.2533ZM346.193 11.9V38H351.193V11.9H346.193ZM348.693 35.5H339.468V40.5H348.693V35.5ZM341.968 38V11.9H336.968V38H341.968ZM344.058 7.285C342.88 7.285 342.18 7.0015 341.735 6.65127L338.641 10.5787C340.176 11.7885 342.056 12.285 344.058 12.285V7.285ZM341.771 6.6801C341.412 6.38611 341.203 6.02771 341.203 5.33H336.203C336.203 7.39229 336.984 9.22389 338.605 10.5499L341.771 6.6801ZM341.203 5.33C341.203 4.68209 341.397 4.33064 341.771 4.02489L338.605 0.155105C336.999 1.46936 336.203 3.27791 336.203 5.33H341.203ZM341.771 4.02489C342.214 3.66226 342.901 3.375 344.058 3.375V-1.625C342.035 -1.625 340.142 -1.10227 338.605 0.155105L341.771 4.02489ZM344.058 3.375C345.305 3.375 345.977 3.67685 346.361 4.00073L349.585 0.17927C348.049 -1.11685 346.111 -1.625 344.058 -1.625V3.375ZM346.39 4.02489C346.764 4.33064 346.958 4.68209 346.958 5.33H351.958C351.958 3.27791 351.162 1.46936 349.556 0.155105L346.39 4.02489ZM346.958 5.33C346.958 6.02771 346.749 6.38611 346.39 6.6801L349.556 10.5499C351.177 9.22389 351.958 7.39229 351.958 5.33H346.958ZM346.397 6.67471C346.012 6.98757 345.326 7.285 344.058 7.285V12.285C346.09 12.285 348.015 11.8024 349.55 10.5553L346.397 6.67471ZM355.685 12.305V9.805H352.657L353.231 12.7785L355.685 12.305ZM364.91 12.305L367.378 11.9045L367.037 9.805H364.91V12.305ZM366.575 22.565H369.075V22.3635L369.043 22.1645L366.575 22.565ZM366.575 38V40.5H369.075V38H366.575ZM357.395 38H354.895V40.5H357.395V38ZM357.395 21.17H359.895V20.9311L359.85 20.6965L357.395 21.17ZM382.325 13.025L383.562 10.8521L383.562 10.8521L382.325 13.025ZM386.285 17.21L384.049 18.328L384.057 18.3428L384.064 18.3575L386.285 17.21ZM387.68 38V40.5H390.18V38H387.68ZM378.5 38H376V40.5H378.5V38ZM377.015 20.54L375.195 22.2534L375.208 22.2674L375.221 22.2812L377.015 20.54ZM369.5 19.82L368.275 17.6411L368.26 17.6494L368.245 17.658L369.5 19.82ZM366.575 25.625L365.415 27.8396L369.075 29.7567V25.625H366.575ZM363.74 24.14L361.262 23.8132L361.033 25.5443L362.58 26.3546L363.74 24.14ZM366.035 17.255L368.151 18.5861L368.156 18.5785L368.161 18.5709L366.035 17.255ZM370.355 12.98L369.131 10.8L369.131 10.8L370.355 12.98ZM355.685 14.805H364.91V9.805H355.685V14.805ZM362.443 12.7055L364.108 22.9655L369.043 22.1645L367.378 11.9045L362.443 12.7055ZM364.075 22.565V38H369.075V22.565H364.075ZM366.575 35.5H357.395V40.5H366.575V35.5ZM359.895 38V21.17H354.895V38H359.895ZM359.85 20.6965L358.14 11.8315L353.231 12.7785L354.941 21.6435L359.85 20.6965ZM376.025 14.04C378.15 14.04 379.803 14.4662 381.089 15.1979L383.562 10.8521C381.368 9.6038 378.82 9.04 376.025 9.04V14.04ZM381.089 15.1979C382.396 15.9417 383.369 16.9684 384.049 18.328L388.521 16.092C387.401 13.8516 385.734 12.0883 383.562 10.8521L381.089 15.1979ZM384.064 18.3575C384.776 19.7346 385.18 21.4548 385.18 23.6H390.18C390.18 20.8252 389.655 18.2854 388.506 16.0625L384.064 18.3575ZM385.18 23.6V38H390.18V23.6H385.18ZM387.68 35.5H378.5V40.5H387.68V35.5ZM381 38V24.95H376V38H381ZM381 24.95C381 22.6133 380.392 20.4296 378.809 18.7988L375.221 22.2812C375.619 22.6904 376 23.4467 376 24.95H381ZM378.836 18.8266C377.27 17.1631 375.128 16.51 372.83 16.51V21.51C374.193 21.51 374.84 21.8769 375.195 22.2534L378.836 18.8266ZM372.83 16.51C371.204 16.51 369.66 16.8619 368.275 17.6411L370.726 21.9989C371.261 21.6981 371.937 21.51 372.83 21.51V16.51ZM368.245 17.658C366.887 18.4466 365.838 19.5716 365.118 20.9701L369.563 23.2599C369.862 22.6784 370.254 22.2734 370.756 21.982L368.245 17.658ZM365.118 20.9701C364.391 22.3817 364.075 23.9603 364.075 25.625H369.075C369.075 24.5897 369.27 23.8283 369.563 23.2599L365.118 20.9701ZM367.735 23.4104L364.9 21.9254L362.58 26.3546L365.415 27.8396L367.735 23.4104ZM366.219 24.4668C366.543 22.0061 367.215 20.0744 368.151 18.5861L363.919 15.9239C362.515 18.1556 361.657 20.8139 361.262 23.8132L366.219 24.4668ZM368.161 18.5709C369.138 16.9919 370.285 15.8865 371.579 15.16L369.131 10.8C367.006 11.9935 365.272 13.7381 363.91 15.9391L368.161 18.5709ZM371.579 15.16C372.894 14.4216 374.359 14.04 376.025 14.04V9.04C373.551 9.04 371.236 9.61845 369.131 10.8L371.579 15.16ZM418.013 27.155L415.613 26.455L415.513 26.7979V27.155H418.013ZM418.328 26.075L420.728 26.775L420.828 26.4321V26.075H418.328ZM418.328 19.775H420.828V19.3693L420.7 18.9844L418.328 19.775ZM418.013 18.83H415.513V19.2357L415.641 19.6206L418.013 18.83ZM418.013 12.305V9.805H415.513V12.305H418.013ZM427.193 12.305H429.693V9.805H427.193V12.305ZM424.988 39.26L422.895 37.8926L422.895 37.8926L424.988 39.26ZM418.823 44.39L417.81 42.1044L417.8 42.1087L418.823 44.39ZM402.938 45.2L403.676 42.8113L403.664 42.8078L403.653 42.8045L402.938 45.2ZM396.908 42.5H394.408V43.9191L395.627 44.6466L396.908 42.5ZM396.908 35.57L398.398 33.5623L394.408 30.6022V35.57H396.908ZM402.758 38.54L403.486 36.1483L403.475 36.1449L403.464 36.1416L402.758 38.54ZM415.673 37.595L414.102 35.6501L414.093 35.6576L414.084 35.6652L415.673 37.595ZM400.508 33.815L399.348 36.0296L399.348 36.0296L400.508 33.815ZM396.008 29.675L393.864 30.9612L393.877 30.9824L393.89 31.0032L396.008 29.675ZM396.008 17.165L393.89 15.8368L393.882 15.8498L393.874 15.8628L396.008 17.165ZM400.508 13.025L399.348 10.8104L399.348 10.8104L400.508 13.025ZM411.938 12.395L411.05 14.732L411.071 14.7398L411.091 14.7472L411.938 12.395ZM415.943 14.6L414.387 16.5571L414.403 16.5694L414.419 16.5816L415.943 14.6ZM418.868 17.57L416.841 19.0337L416.865 19.0657L416.889 19.097L418.868 17.57ZM420.713 20.72L418.392 21.6485L418.392 21.6485L420.713 20.72ZM420.353 27.2L418.107 26.102L418.097 26.1223L418.088 26.1428L420.353 27.2ZM417.563 31.07L415.795 29.3022L415.795 29.3022L417.563 31.07ZM413.018 34.13L414.026 36.4177L414.035 36.4138L414.044 36.4098L413.018 34.13ZM414.818 27.65L416.215 29.7232L416.215 29.7232L414.818 27.65ZM418.328 23.42L420.557 24.5522L421.136 23.4114L420.55 22.2743L418.328 23.42ZM414.773 19.19L413.376 21.2632L413.392 21.2737L413.407 21.284L414.773 19.19ZM406.628 18.47L405.594 16.1941L405.58 16.2001L405.567 16.2064L406.628 18.47ZM404.423 20.45L406.56 21.7474L406.57 21.7309L406.58 21.7143L404.423 20.45ZM404.423 26.39L402.266 27.6543L402.276 27.6709L402.286 27.6874L404.423 26.39ZM406.628 28.37L405.51 30.6061L405.538 30.6202L405.567 30.6336L406.628 28.37ZM420.513 31.52V27.155H415.513V31.52H420.513ZM420.413 27.855L420.728 26.775L415.928 25.375L415.613 26.455L420.413 27.855ZM420.828 26.075V19.775H415.828V26.075H420.828ZM420.7 18.9844L420.385 18.0394L415.641 19.6206L415.956 20.5656L420.7 18.9844ZM420.513 18.83V12.305H415.513V18.83H420.513ZM418.013 14.805H427.193V9.805H418.013V14.805ZM424.693 12.305V31.16H429.693V12.305H424.693ZM424.693 31.16C424.693 33.9096 424.056 36.1151 422.895 37.8926L427.081 40.6274C428.86 37.9049 429.693 34.7104 429.693 31.16H424.693ZM422.895 37.8926C421.709 39.7085 420.043 41.1147 417.81 42.1044L419.836 46.6756C422.883 45.3253 425.327 43.3115 427.081 40.6274L422.895 37.8926ZM417.8 42.1087C415.581 43.1034 412.855 43.645 409.553 43.645V48.645C413.391 48.645 416.845 48.0166 419.846 46.6713L417.8 42.1087ZM409.553 43.645C407.406 43.645 405.452 43.3599 403.676 42.8113L402.2 47.5887C404.504 48.3001 406.96 48.645 409.553 48.645V43.645ZM403.653 42.8045C401.863 42.2701 400.042 41.4594 398.19 40.3534L395.627 44.6466C397.794 45.9406 399.993 46.9299 402.223 47.5955L403.653 42.8045ZM399.408 42.5V35.57H394.408V42.5H399.408ZM395.418 37.5777C397.494 39.1175 399.706 40.2483 402.053 40.9384L403.464 36.1416C401.73 35.6317 400.042 34.7825 398.398 33.5623L395.418 37.5777ZM402.03 40.9317C404.325 41.6302 406.64 41.985 408.968 41.985V36.985C407.156 36.985 405.331 36.7098 403.486 36.1483L402.03 40.9317ZM408.968 41.985C412.217 41.985 415.113 41.295 417.262 39.5248L414.084 35.6652C413.173 36.415 411.599 36.985 408.968 36.985V41.985ZM417.244 39.5399C419.597 37.6391 420.513 34.7539 420.513 31.52H415.513C415.513 33.8661 414.869 35.0309 414.102 35.6501L417.244 39.5399ZM406.988 32.8C404.906 32.8 403.153 32.3783 401.668 31.6004L399.348 36.0296C401.643 37.2317 404.211 37.8 406.988 37.8V32.8ZM401.668 31.6004C400.162 30.8113 398.996 29.7335 398.126 28.3468L393.89 31.0032C395.24 33.1565 397.075 34.8387 399.348 36.0296L401.668 31.6004ZM398.152 28.3888C397.334 27.0256 396.888 25.3967 396.888 23.42H391.888C391.888 26.1833 392.522 28.7244 393.864 30.9612L398.152 28.3888ZM396.888 23.42C396.888 21.4058 397.337 19.7866 398.142 18.4672L393.874 15.8628C392.519 18.0834 391.888 20.6342 391.888 23.42H396.888ZM398.126 18.4932C398.996 17.1065 400.162 16.0287 401.668 15.2396L399.348 10.8104C397.075 12.0013 395.24 13.6835 393.89 15.8368L398.126 18.4932ZM401.668 15.2396C403.153 14.4617 404.906 14.04 406.988 14.04V9.04C404.211 9.04 401.643 9.60831 399.348 10.8104L401.668 15.2396ZM406.988 14.04C408.521 14.04 409.866 14.2821 411.05 14.732L412.826 10.058C411.01 9.36793 409.055 9.04 406.988 9.04V14.04ZM411.091 14.7472C412.352 15.2012 413.444 15.8075 414.387 16.5571L417.499 12.6429C416.102 11.5325 414.524 10.6688 412.785 10.0428L411.091 14.7472ZM414.419 16.5816C415.418 17.3499 416.217 18.1696 416.841 19.0337L420.895 16.1063C419.959 14.8104 418.809 13.6501 417.467 12.6184L414.419 16.5816ZM416.889 19.097C417.581 19.9949 418.071 20.846 418.392 21.6485L423.034 19.7915C422.515 18.494 421.775 17.2451 420.848 16.043L416.889 19.097ZM418.392 21.6485C418.737 22.5118 418.843 23.1171 418.843 23.51H423.843C423.843 22.2829 423.529 21.0282 423.034 19.7915L418.392 21.6485ZM418.843 23.51C418.843 24.1295 418.656 24.979 418.107 26.102L422.599 28.298C423.37 26.721 423.843 25.1105 423.843 23.51H418.843ZM418.088 26.1428C417.6 27.1886 416.853 28.2444 415.795 29.3022L419.331 32.8378C420.733 31.4356 421.847 29.9114 422.619 28.2572L418.088 26.1428ZM415.795 29.3022C414.806 30.2912 413.553 31.1479 411.992 31.8502L414.044 36.4098C416.083 35.4921 417.86 34.3088 419.331 32.8378L415.795 29.3022ZM412.01 31.8423C410.605 32.4613 408.947 32.8 406.988 32.8V37.8C409.529 37.8 411.891 37.3587 414.026 36.4177L412.01 31.8423ZM410.093 31.545C412.328 31.545 414.396 30.9494 416.215 29.7232L413.421 25.5768C412.481 26.2106 411.399 26.545 410.093 26.545V31.545ZM416.215 29.7232C418.032 28.4989 419.456 26.7198 420.557 24.5522L416.099 22.2878C415.28 23.9002 414.364 24.9411 413.421 25.5768L416.215 29.7232ZM420.55 22.2743C419.422 20.0857 417.977 18.295 416.139 17.096L413.407 21.284C414.329 21.885 415.255 22.9143 416.106 24.5657L420.55 22.2743ZM416.17 17.1168C414.358 15.8955 412.307 15.295 410.093 15.295V20.295C411.359 20.295 412.428 20.6245 413.376 21.2632L416.17 17.1168ZM410.093 15.295C408.491 15.295 406.97 15.5683 405.594 16.1941L407.663 20.7459C408.266 20.4717 409.055 20.295 410.093 20.295V15.295ZM405.567 16.2064C404.174 16.8593 403.046 17.8563 402.266 19.1857L406.58 21.7143C406.821 21.3037 407.162 20.9807 407.689 20.7336L405.567 16.2064ZM402.286 19.1526C401.503 20.4427 401.158 21.8969 401.158 23.42H406.158C406.158 22.6631 406.323 22.1373 406.56 21.7474L402.286 19.1526ZM401.158 23.42C401.158 24.9284 401.509 26.363 402.266 27.6543L406.58 25.1257C406.317 24.677 406.158 24.1316 406.158 23.42H401.158ZM402.286 27.6874C403.063 28.9669 404.169 29.9356 405.51 30.6061L407.746 26.1339C407.167 25.8444 406.803 25.4931 406.56 25.0926L402.286 27.6874ZM405.567 30.6336C406.937 31.2758 408.473 31.545 410.093 31.545V26.545C409.013 26.545 408.239 26.3642 407.689 26.1064L405.567 30.6336Z" fill="black" mask="url(#path-1-outside-1_473_8638)"/>
</g>
</svg>
