<svg width="185" height="55" viewBox="0 0 185 55" fill="none" xmlns="http://www.w3.org/2000/svg">
<path d="M39.8125 10.875L22.625 28.0625L5.4375 10.875L39.8125 10.875ZM22.625 28.0625L39.8125 45.25L5.4375 45.25L22.625 28.0625Z" fill="#12151F"/>
<rect x="42.5" y="8.5" width="36" height="40" transform="rotate(90 42.5 8.5)" stroke="#12151F" stroke-width="5"/>
<path d="M58.125 45V10H79.7L84.85 15.15V26L81.8 28.8L84.85 32.125V45H77.775V34.625L75.275 32.125H65.2V45H58.125ZM61.325 41.9H62.025V28.75H76.625L81.05 33.55V41.9H81.75V33.35L77.225 28.4L81.55 24.775V16.725L77.95 13.125H61.325V41.9ZM65.2 25.05H76.25L77.775 23.5V18.6L76.25 17.075H65.2V25.05ZM62.025 28.05V13.825H77.7L80.85 16.925V24.55L76.625 28.05H62.025ZM95.7398 45L90.5898 39.85V15.15L95.7398 10H112.34L117.49 15.15V39.85L112.34 45H95.7398ZM99.1898 37.925H108.89L110.415 36.4V18.6L108.89 17.075H99.1898L97.6648 18.6V36.4L99.1898 37.925ZM97.4398 41.7H110.69L114.29 38.1V16.7L110.69 13.1H97.4398L93.8398 16.7V38.1L97.4398 41.7ZM97.6898 41L94.5398 37.9V16.9L97.6898 13.8H110.44L113.59 16.9V37.9L110.44 41H97.6898ZM123.506 45V10H144.331L149.481 15.15V39.85L144.331 45H123.506ZM130.581 37.925H140.906L142.431 36.4V18.6L140.906 17.075H130.581V37.925ZM126.731 41.825H142.631L146.231 38.225V16.825L142.631 13.225H126.731V41.825ZM127.431 41.125V13.925H142.381L145.531 17.025V38.025L142.381 41.125H127.431ZM155.482 45V15.15L160.632 10H176.782L181.932 15.15V45H174.882V34.7H162.532V45H155.482ZM158.782 41.55H159.482V31.6H178.057V41.55H178.757V16.575L175.157 12.975H162.382L158.782 16.575V41.55ZM162.532 27.65H174.882V18.6L173.357 17.075H164.057L162.532 18.6V27.65ZM159.482 30.9V16.775L162.632 13.675H174.907L178.057 16.775V30.9H159.482Z" fill="#12151F"/>
</svg>
